<svg xmlns="http://www.w3.org/2000/svg" width="435" height="481" viewBox="0 0 435 481"><g><g><g/><g><g><path fill="#3fb1b5" d="M49.43 468.67h265.608v1.233H49.43z"/></g><g><path fill="#66b0f0" d="M296.44 481.004H4.08v-.954h292.36z"/></g></g><g><g><g><path fill="#fff" d="M295.156 4.92v47.85c0 9.37-7.645 16.983-17.055 16.983H224.82c9.41 0 17.055-7.59 17.055-16.984V4.92z"/></g><g><path fill="#66b0f0" d="M241.294 4.34h54.443v48.428c0 9.69-7.905 17.562-17.636 17.562H224.82v-1.157c9.09 0 16.475-7.331 16.475-16.405zm36.807 64.833c9.09 0 16.474-7.354 16.474-16.405V5.497h-52.119v47.27c0 7.496-4.706 13.88-11.326 16.406z"/></g><g><path fill="#ffcf2d" d="M270.549.29h-4.299v10.204h4.299z"/></g><g><g><g><path fill="#66b0f0" d="M279.657 23.11a2.54 2.54 0 0 1-1.697-.672l-1.789-1.573c-.557-.486-1.301-.486-1.859 0l-1.696 1.504c-1 .88-2.393.88-3.416 0l-1.556-1.365c-.558-.486-1.302-.486-1.86 0l-1.44 1.272c-1 .88-2.393.88-3.416 0l-1.185-1.04c-.557-.487-1.301-.487-1.859 0l-1.278 1.133c-.999.88-2.393.88-3.415 0l-1.185-1.041c-.558-.486-1.302-.486-1.86 0a.585.585 0 0 1-.813-.047.579.579 0 0 1 .047-.81c.999-.879 2.393-.879 3.416 0l1.185 1.042c.557.486 1.3.486 1.858 0l1.278-1.134c1-.88 2.394-.88 3.416 0l1.185 1.041c.558.486 1.302.486 1.86 0l1.44-1.272c.999-.88 2.393-.88 3.416 0l1.556 1.365c.558.486 1.302.486 1.86 0l1.696-1.504c.999-.88 2.393-.88 3.415 0l1.79 1.573c.557.486 1.3.486 1.858 0l1.86-1.643c.998-.879 2.393-.879 3.415 0a.58.58 0 0 1 .046.81.585.585 0 0 1-.813.047c-.557-.486-1.301-.486-1.859 0l-1.859 1.642c-.557.44-1.138.671-1.742.671z"/></g></g><g><g><path fill="#66b0f0" d="M279.657 32.62a2.54 2.54 0 0 1-1.697-.672l-1.789-1.573c-.557-.486-1.301-.486-1.859 0l-1.696 1.504c-1 .88-2.393.88-3.416 0l-1.556-1.365c-.558-.486-1.302-.486-1.86 0l-1.44 1.272c-1 .88-2.393.88-3.416 0l-1.185-1.04c-.557-.487-1.301-.487-1.859 0l-1.278 1.133c-.999.88-2.393.88-3.415 0l-1.185-1.041c-.558-.486-1.302-.486-1.86 0a.585.585 0 0 1-.813-.047.579.579 0 0 1 .047-.81c.999-.879 2.393-.879 3.416 0l1.185 1.042c.557.486 1.3.486 1.858 0l1.278-1.134c1-.88 2.394-.88 3.416 0l1.185 1.041c.558.486 1.302.486 1.86 0l1.44-1.272c.999-.88 2.393-.88 3.416 0l1.556 1.365c.558.486 1.302.486 1.86 0l1.696-1.504c.999-.88 2.393-.88 3.415 0l1.79 1.573c.557.486 1.3.486 1.858 0l1.86-1.643c.998-.879 2.393-.879 3.415 0a.58.58 0 0 1 .046.81.585.585 0 0 1-.813.047c-.557-.486-1.301-.486-1.859 0l-1.859 1.642c-.557.463-1.138.671-1.742.671z"/></g></g><g><g><path fill="#66b0f0" d="M279.657 42.13a2.54 2.54 0 0 1-1.697-.672l-1.789-1.573c-.557-.486-1.301-.486-1.859 0l-1.696 1.504c-1 .88-2.393.88-3.416 0l-1.556-1.365c-.558-.486-1.302-.486-1.86 0l-1.44 1.272c-1 .88-2.393.88-3.416 0l-1.185-1.04c-.557-.487-1.301-.487-1.859 0l-1.278 1.133c-.999.88-2.393.88-3.415 0l-1.185-1.041c-.558-.486-1.302-.486-1.86 0a.585.585 0 0 1-.813-.047.579.579 0 0 1 .047-.81c.999-.879 2.393-.879 3.416 0l1.185 1.042c.557.486 1.3.486 1.858 0l1.278-1.134c1-.88 2.394-.88 3.416 0l1.185 1.041c.558.486 1.302.486 1.86 0l1.44-1.272c.999-.88 2.393-.88 3.416 0l1.556 1.365c.558.486 1.302.486 1.86 0l1.696-1.504c.999-.88 2.393-.88 3.415 0l1.79 1.573c.557.486 1.3.486 1.858 0l1.86-1.643c.998-.879 2.393-.879 3.415 0a.58.58 0 0 1 .046.81.585.585 0 0 1-.813.047c-.557-.486-1.301-.486-1.859 0l-1.859 1.642c-.557.463-1.138.671-1.742.671z"/></g></g><g><g><path fill="#66b0f0" d="M279.657 51.66a2.54 2.54 0 0 1-1.697-.672l-1.789-1.573c-.557-.486-1.301-.486-1.859 0l-1.696 1.504c-1 .88-2.393.88-3.416 0l-1.556-1.365c-.558-.486-1.302-.486-1.86 0l-1.44 1.272c-1 .88-2.393.88-3.416 0l-1.185-1.04c-.557-.487-1.301-.487-1.859 0l-1.278 1.133c-.999.88-2.393.88-3.415 0l-1.185-1.041c-.558-.486-1.302-.486-1.86 0a.585.585 0 0 1-.813-.047.579.579 0 0 1 .047-.81c.999-.879 2.393-.879 3.416 0l1.185 1.042c.557.486 1.3.486 1.858 0l1.278-1.134c1-.88 2.394-.88 3.416 0l1.185 1.041c.558.486 1.302.486 1.86 0l1.44-1.272c.999-.88 2.393-.88 3.416 0l1.556 1.365c.558.486 1.302.486 1.86 0l1.696-1.504c.999-.88 2.393-.88 3.415 0l1.79 1.573c.557.486 1.3.486 1.858 0l1.86-1.643c.998-.879 2.393-.879 3.415 0a.58.58 0 0 1 .046.81.585.585 0 0 1-.813.047c-.557-.486-1.301-.486-1.859 0l-1.859 1.642c-.557.44-1.138.671-1.742.671z"/></g></g></g></g><g><g><path fill="#ffcf2d" d="M350.01 4.92h-37.27v37.113h37.27z"/></g><g><path fill="#fe5244" d="M320.931 3.337L318.233.005l-9.841 7.937 2.698 3.333z"/></g><g><path fill="#fe5244" d="M351.945 11.256l2.702-3.33L344.797 0l-2.702 3.33z"/></g><g><g><path fill="#fff" d="M342.139 13.71H319.53v1.388h22.609z"/></g></g><g><g><path fill="#fff" d="M342.139 19.71H319.53v1.388h22.609z"/></g></g><g><g><path fill="#fff" d="M342.139 25.72H319.53v1.388h22.609z"/></g></g><g><g><path fill="#fff" d="M342.139 31.72H319.53v1.388h22.609z"/></g></g></g></g><g><g><g><g><g><path fill="#e57281" d="M378.46 404.179c-.539-.159-.839-.239-.839-.239l-6.532 21.305-24.591-6.426c-.2-.179-.3-.278-.3-.278s-99.583-77.718-104.817-115.016c-5.214-37.297 36.497-72.685 36.497-72.685s88.956 167.431 99.963 172.901c.219.12.439.259.619.438z"/></g><g><path fill="#9a3b82" d="M298.926 270.004c-3.117 16.61-14.064 50.247-25.39 82.791-16.78-18.003-30.325-36.164-32.162-49.293-3.317-23.631 12.245-46.527 24.071-60.094a105.194 105.194 0 0 1 14.064-9.488c3.096 5.789 10.268 19.196 19.417 36.084z"/></g></g><g><g><path fill="#fff" d="M434.353 418.52l-36.577 23.374-10.607-1.591-9.769 6.166 3.157 6.445-16.082 10.284c-21.315-19.315-18.298-44.438-18.298-44.438l24.89 6.504 6.533-21.304s22.354 6.505 38.855 5.948c16.54-.557 17.899 8.613 17.899 8.613z"/></g><g><path fill="#fe5244" d="M377.199 403.22l.568.165-.168.573.168-.573.016.005.047.013.188.054a158.757 158.757 0 0 0 3.48.93c2.347.6 5.647 1.393 9.46 2.17 7.639 1.553 17.297 3.029 25.475 2.752 8.385-.282 13.029 1.9 15.58 4.257 1.27 1.173 2 2.37 2.415 3.283.207.457.334.842.411 1.118a5.173 5.173 0 0 1 .104.45l.001.01v.003h.001c0 .002 0 .002-.593.09l.593-.088.057.381-37.093 23.703-10.61-1.592-9.126 5.762 3.155 6.442-16.917 10.818-.34-.308c-10.77-9.76-15.394-20.99-17.324-29.776a55.984 55.984 0 0 1-1.308-10.866c-.026-1.344.01-2.416.05-3.154a26.103 26.103 0 0 1 .09-1.132l.001-.016v-.006c.001 0 .001-.001.596.07l-.595-.071.082-.68 24.999 6.533zm-30.488 16.295a41.108 41.108 0 0 0-.074 3.46c.05 2.624.335 6.329 1.28 10.631 1.87 8.512 6.318 19.357 16.622 28.84l15.244-9.749-3.157-6.448 10.41-6.571 10.606 1.59 36.03-23.023a6.656 6.656 0 0 0-.337-.904c-.357-.79-1-1.85-2.137-2.9-2.263-2.09-6.569-4.213-14.724-3.939-8.322.281-18.091-1.217-25.755-2.776a200.269 200.269 0 0 1-9.518-2.182 160.155 160.155 0 0 1-3.2-.852l-6.53 21.293z"/></g><g><path fill="#fe5244" d="M393.3 406.02c.685-.49 1.397-1.234 2.107-2.16.987-1.287 1.917-2.855 2.722-4.386a58.931 58.931 0 0 0 2.668-5.862l.009-.024.002-.005v-.002l.561.21.561.21v.001l-.003.009-.01.026a19.775 19.775 0 0 1-.186.472 60.142 60.142 0 0 1-2.54 5.52c-.82 1.56-1.787 3.193-2.832 4.556-1.031 1.345-2.195 2.501-3.432 3.006-.732.3-1.466.206-2.13-.132-.648-.329-1.241-.892-1.771-1.57-1.062-1.356-1.979-3.314-2.625-5.324-.647-2.013-1.042-4.14-1.02-5.856.011-.854.126-1.65.397-2.287.274-.646.737-1.184 1.452-1.375h.001l.002-.001c.716-.188 1.357.044 1.878.482.502.422.923 1.055 1.28 1.773.721 1.443 1.287 3.43 1.723 5.402.438 1.982.753 3.992.959 5.503.101.745.176 1.37.226 1.813zm-1.19.153a79.12 79.12 0 0 0-.225-1.806 68.796 68.796 0 0 0-.942-5.407c-.43-1.95-.972-3.82-1.624-5.128-.328-.657-.66-1.123-.981-1.392-.3-.253-.55-.305-.797-.24-.249.067-.478.26-.66.687-.185.438-.292 1.06-.302 1.838-.02 1.548.342 3.542.963 5.476.622 1.935 1.486 3.749 2.43 4.955.472.604.938 1.02 1.37 1.24.29.148.557.204.812.174l-.044-.397z"/></g><g><path fill="#fe5244" d="M433.15 415.842l-34.81 21.642-11.553-1.851-12.125 7.216-24.682-.38.019-1.194 24.34.376 12.207-7.265 11.54 1.848 34.429-21.404z"/></g><g><g><path fill="#fe5244" d="M384.84 416.323l2.277-10.563 1.172.25-2.277 10.563z"/></g><g><path fill="#fe5244" d="M389.8 417.523l2.277-10.563 1.172.25-2.277 10.563z"/></g><g><path fill="#fe5244" d="M394.97 418.373l2.277-10.563 1.172.25-2.277 10.563z"/></g></g></g></g><g><g><path fill="#e57281" d="M269.42 222.7s14.643 6.803 14.643 31.748c0 24.109-55.894 171.747-55.894 171.747l-17.2 14.522-17.459-19.037c8.53-8.076-15.961-154.084 75.91-198.98z"/></g><g><g><path fill="#fff" d="M267.866 469.003l-43.469.04-8.07-7.042-11.567-.06-.839 7.122-17.04.02c-9.269-28.725 6.713-47.423 6.713-47.423l17.34 19.017 17.319-14.502s15.022 17.545 29.206 25.94c14.223 8.414 10.407 16.888 10.407 16.888z"/></g><g><path fill="#fe5244" d="M193.578 420.76l17.41 19.094 17.334-14.513.386.451.01.012.032.037.127.147.498.567c.436.494 1.076 1.21 1.888 2.094a190.1 190.1 0 0 0 6.694 6.927c5.519 5.426 12.779 11.87 19.807 16.03 7.21 4.265 9.938 8.603 10.812 11.962.434 1.673.402 3.076.256 4.07a7.8 7.8 0 0 1-.257 1.163 5.133 5.133 0 0 1-.157.436l-.003.009-.002.004-.548-.243.547.244-.158.352-44.083.04-8.072-7.043-10.806-.056-.84 7.119-18.009.02-.134-.414c-4.68-14.503-2.988-26.492-.116-34.858 1.435-4.181 3.163-7.456 4.535-9.688a36.544 36.544 0 0 1 1.712-2.553 22.56 22.56 0 0 1 .68-.876l.01-.012.004-.003v-.001c.001 0 .001-.001.458.386l-.457-.387zm.047 1.826l-.218.29a35.35 35.35 0 0 0-1.655 2.47c-1.335 2.17-3.022 5.366-4.424 9.45-2.775 8.085-4.433 19.659-.009 33.693l16.069-.019.839-7.124 12.326.063 8.069 7.04 42.82-.039c.065-.221.145-.54.204-.945.126-.858.159-2.1-.23-3.598-.776-2.98-3.252-7.087-10.264-11.236-7.156-4.234-14.498-10.76-20.037-16.205a191.136 191.136 0 0 1-6.736-6.972 152.307 152.307 0 0 1-2.193-2.44l-17.31 14.493z"/></g><g><path fill="#fe5244" d="M248.267 420.052a3.052 3.052 0 0 1 2.491.74c.739.639 1.078 1.434 1.076 2.309-.003.845-.322 1.72-.806 2.574-.967 1.706-2.705 3.523-4.545 5.165-1.851 1.652-3.85 3.167-5.383 4.267a79.3 79.3 0 0 1-1.771 1.235c.198.018.44.027.729.023.719-.011 1.626-.103 2.663-.258 2.072-.308 4.6-.856 7.06-1.452a201.328 201.328 0 0 0 6.595-1.73 210.649 210.649 0 0 0 2.854-.82l.052-.015.172.571.173.572-.054.016-.075.022-.08.024-.591.173c-.51.148-1.241.358-2.127.606-1.77.495-4.16 1.14-6.635 1.74-2.472.6-5.041 1.157-7.166 1.474-1.062.158-2.028.258-2.823.27-.76.012-1.482-.052-1.965-.316-.66-.36-.782-1.142-.758-1.798.025-.712.227-1.588.544-2.535.637-1.902 1.785-4.23 3.164-6.369 1.375-2.132 3.015-4.131 4.658-5.334.821-.602 1.684-1.036 2.548-1.154zm-9.714 15.371a77.344 77.344 0 0 0 1.846-1.285c1.514-1.086 3.476-2.574 5.284-4.187 1.818-1.622 3.434-3.333 4.301-4.862.433-.764.65-1.433.651-1.991.002-.529-.188-.994-.663-1.404a1.852 1.852 0 0 0-1.542-.46c-.59.081-1.265.394-2 .933-1.472 1.078-3.019 2.938-4.36 5.018-1.337 2.073-2.437 4.31-3.036 6.102-.29.866-.452 1.595-.48 2.136z"/></g><g><path fill="#fe5244" d="M184.27 444.19l.64-1.01 20.249 12.718h14.208l8.97 7.5h39.875v1.193H227.9l-8.97-7.5h-14.117z"/></g><g><g><path fill="#fe5244" d="M226.27 439.488l7.67-7.638.848.844-7.67 7.638z"/></g><g><path fill="#fe5244" d="M229.79 443.158l7.67-7.638.848.844-7.67 7.638z"/></g><g><path fill="#fe5244" d="M233.66 446.668l7.671-7.638.848.844-7.671 7.638z"/></g></g></g></g></g><g><g><path fill="#fe5244" d="M269.427 222.7c-34.54 16.869-52.639 48.059-62.207 80.821H102.403c-26.828 0-46.825-24.646-41.172-50.764l7.691-35.567h182.246a32.85 32.85 0 0 1 18.259 5.51z"/></g><g><path fill="#e57281" d="M191.6 256.8l37.736-.08-5.594 9.13z"/></g><g><path fill="#fff" d="M108.672 216.613a.597.597 0 0 1 .464.706l-1.458 6.962c-3.438 16.438 9.143 31.864 26.002 31.864h95.321c10.056-13.869 23.18-25.78 40.355-34.173a.6.6 0 0 1 .802.273.596.596 0 0 1-.274.799c-17.082 8.346-30.113 20.213-40.09 34.046l-.179.249H133.68c-17.62 0-30.769-16.123-27.175-33.302l1.458-6.962a.6.6 0 0 1 .709-.462z"/></g><g><path fill="#fff" d="M191.023 256.612a.6.6 0 0 1 .742-.409l32.49 9.284-.397.665c-6.98 11.704-12.117 24.485-15.922 37.518a.6.6 0 0 1-1.15-.333c3.754-12.86 8.804-25.502 15.647-37.128l-30.999-8.858a.596.596 0 0 1-.41-.739z"/></g></g><g><g><path fill="#3fb1b5" d="M44.43 121.652l19.197 74.993H27.809c-20.856 0-34.28-22.06-24.611-40.46l27.507-52.376C38.496 88.99 53.898 79.7 70.698 79.7h6.493c-22.054-.02-38.215 20.668-32.762 41.952z"/></g><g><path fill="#3fb1b5" d="M265.486 102.198c11.287 0 20.676-1.492 22.953-3.581l-35.019 75.59c-6.332 13.685-20.096 22.438-35.218 22.438a38.75 38.75 0 0 1-12.905-2.208 38.78 38.78 0 0 1-11.447-6.366l-22.074-17.743s-2.197 12.87-17.879 16.152v30.674h-85l-24.471-95.522C38.972 100.348 55.133 79.64 77.187 79.64h59.51c5.254 0 10.428.656 15.422 1.93 13.664 3.46 25.93 11.457 34.6 22.915l29.086 38.431 26.129-45.473c0 .04-.02.1-.02.14.02 2.645 10.587 4.615 23.572 4.615z"/></g><g><path fill="#fff" d="M44.085 121.068a.6.6 0 0 1 .726.435l18.798 75.59a.6.6 0 0 1-1.163.287l-18.798-75.59a.597.597 0 0 1 .437-.722z"/></g><g><path fill="#fff" d="M154.869 153.202a.601.601 0 0 1 .847.026l16.7 17.704a.595.595 0 0 1-.026.844.601.601 0 0 1-.847-.027l-16.7-17.704a.595.595 0 0 1 .026-.843z"/></g><g><path fill="#fe5244" d="M288.965 97.504l-.52 1.114c-2.277 2.109-11.666 3.58-22.953 3.58-12.984 0-23.552-1.969-23.552-4.574 0-.04 0-.1.02-.14.36-2.546 10.787-4.734 23.552-4.734 12.745 0 23.093 2.188 23.453 4.754 0-.02 0-.02 0 0z"/></g></g><g><g><path fill="#e57281" d="M299.427 59.314c0 1.134-.28 2.248-.8 3.223a7.146 7.146 0 0 1-2.217 2.486l-.46.319-3.575 18.996a11.396 11.396 0 0 1-5.074 7.5l-4.894 3.103-3.876 2.466-1.798 4.277c-3.336.338-7.151.537-11.226.537-4.116 0-7.991-.199-11.367-.557v-29.46c0-1.273.28-2.526.82-3.68l6.511-13.964s7.112 1.75 3.836 10.443c-2.977 7.897 3.815 5.868 7.63 4.456 3.417-1.273 18.34-8.832 24.173-11.597 1.078-.517 2.317.279 2.317 1.452z"/></g><g><g><path fill="#9a3b82" d="M293.285 76.629c.271.05.45.31.4.58a11.854 11.854 0 0 1-5.297 7.807l-8.77 5.57a.5.5 0 0 1-.69-.152.496.496 0 0 1 .153-.687l8.77-5.57a10.859 10.859 0 0 0 4.851-7.151.5.5 0 0 1 .583-.397z"/></g><g><path fill="#9a3b82" d="M294.725 68.569c.27.05.45.31.399.58a11.854 11.854 0 0 1-5.296 7.807l-8.77 5.57a.5.5 0 0 1-.69-.152.496.496 0 0 1 .153-.687l8.77-5.57a10.86 10.86 0 0 0 4.851-7.151.5.5 0 0 1 .583-.397z"/></g><g><path fill="#9a3b82" d="M295.735 65.29a.496.496 0 0 1-.154.687l-14.104 8.912a.5.5 0 0 1-.69-.153.496.496 0 0 1 .155-.687l14.103-8.912a.5.5 0 0 1 .69.154z"/></g></g><g><path fill="#9a3b82" d="M283.166 94.441l-.78.498-3.875 2.466-1.798 4.277c-3.336.338-7.151.537-11.226.537-4.116 0-7.991-.199-11.367-.557v-8.275c3.376-.398 7.251-.617 11.367-.617 7.051-.02 13.364.637 17.679 1.671z"/></g></g><g><g><g><path fill="#e57281" d="M150.267 81.114c-2.897 3.878-13.684 13.009-50.001 13.009-46.725 0-16.82-14.402-16.82-14.402l19.816-32.961 21.255 12.99v10.443c0 5.271 4.295 9.528 9.569 9.528h1.378c4.954-.02 10.068.199 14.803 1.393z"/></g><g><path fill="#9a3b82" d="M124.502 59.73v2.665L83.43 79.701l19.817-32.961z"/></g></g><g><g><path fill="#e57281" d="M125.612 61.023h4.515c4.155 0 7.531-3.361 7.531-7.499V28.48H110.71v17.704c0 8.195 6.672 14.84 14.903 14.84z"/></g><g><path fill="#73325a" d="M133.453 49.832v-.001c0-.001 0-.001 0 0m0 0a.627.627 0 0 0 .036.056c.03.043.078.109.145.19.134.162.342.383.633.605.577.44 1.486.892 2.81.892a.498.498 0 1 1 0 .994c-1.573 0-2.691-.542-3.418-1.097a4.855 4.855 0 0 1-.797-.763 3.727 3.727 0 0 1-.264-.364l-.005-.008-.002-.002v-.002h-.001l.432-.25"/></g><g><path fill="#73325a" d="M134.459 44.05c.53 0 .959-.828.959-1.85 0-1.022-.43-1.85-.96-1.85-.529 0-.958.828-.958 1.85 0 1.022.43 1.85.959 1.85z"/></g></g><g><path fill="#ffcf2d" d="M115.85 31.085s22.234 13.368 29.465 1.731c6.353-10.204-21.794-15.456-31.623-15.496-10.687-.04-24.85 4.675-24.61 20.33.2 12.89.739 31.748-6.932 28.465-27.288-11.656-51.54.517-51.62 23.712-.08 23.194 26.948 25.362 27.628 19.375.699-5.968-16.78-4.596-14.423 10.9 2.337 15.496 12.765 34.871 36.577 34.871 28.766.02 47.084-37.695 29.285-41.535-13.644-2.944 13.904 23.274 22.074-3.978 8.79-29.34-22.973-38.949-23.752-56.672-.779-17.724 7.93-21.703 7.93-21.703z"/></g><g><path fill="#fff" d="M113.694 16.82c4.967.02 14.516 1.352 22.042 3.964 3.753 1.303 7.074 2.948 9.056 4.96.998 1.013 1.682 2.145 1.884 3.396.203 1.26-.092 2.578-.937 3.935-1.904 3.065-4.801 4.473-8.018 4.87-3.198.396-6.73-.203-9.991-1.156-3.268-.954-6.3-2.274-8.513-3.353a60.001 60.001 0 0 1-2.64-1.366 41.797 41.797 0 0 1-.74-.417 8.45 8.45 0 0 0-1.023.714c-.765.62-1.793 1.633-2.803 3.19-2.015 3.11-3.98 8.43-3.594 17.206.189 4.28 2.248 8.105 5.175 11.927 1.462 1.909 3.13 3.804 4.874 5.748l.897.997c1.462 1.624 2.959 3.286 4.403 5.011 3.485 4.16 6.703 8.723 8.485 14.115 1.787 5.403 2.124 11.61-.102 19.039-2.07 6.906-5.403 10.528-9.105 12.023-1.957.79-3.982.971-5.927.755.084 4.046-1.47 8.863-4.273 13.527-6.013 10.011-17.927 19.573-32.533 19.563-12.06-.001-20.756-4.914-26.72-11.797-5.951-6.869-9.172-15.682-10.35-23.498-.573-3.763-.008-6.753 1.213-9.036-.193-.07-.386-.144-.58-.22-6.986-2.754-13.885-9.257-13.844-21.095.04-11.791 6.237-20.805 15.892-25.372 8.997-4.255 20.955-4.633 33.686.111l-.609.836c-12.43-4.567-24.002-4.138-32.649-.049-9.312 4.405-15.282 13.075-15.321 24.478-.04 11.355 6.536 17.534 13.213 20.166.244.096.488.187.731.274a10.759 10.759 0 0 1 3.898-3.545l-2.046 2.805a9.663 9.663 0 0 0-.867 1.066l.074.022-.62.85c-1.157 2.084-1.742 4.896-1.184 8.561v.001c1.158 7.68 4.32 16.302 10.12 22.995 5.787 6.679 14.212 11.452 25.963 11.452 14.16.01 25.788-9.276 31.676-19.078 2.787-4.639 4.253-9.338 4.127-13.164a16.951 16.951 0 0 1-3.866-1.215 18.051 18.051 0 0 1-4.139-2.566c-1.12-.937-1.98-1.932-2.417-2.828-.219-.447-.351-.907-.323-1.343.03-.458.236-.863.633-1.146.377-.269.885-.399 1.483-.424.602-.027 1.34.051 2.217.24 2.321.501 4.086 1.563 5.313 3.06 1.197 1.461 1.854 3.302 2.046 5.361 1.857.23 3.775.071 5.607-.669 3.335-1.346 6.51-4.666 8.524-11.386 2.169-7.241 1.832-13.239.111-18.443-1.725-5.216-4.849-9.664-8.304-13.789-1.432-1.71-2.915-3.357-4.377-4.98-.3-.336-.602-.67-.9-1.003-1.746-1.944-3.437-3.865-4.925-5.807-2.973-3.882-5.176-7.905-5.377-12.486-.394-8.948 1.607-14.48 3.752-17.79 1.071-1.652 2.172-2.741 3.014-3.422.42-.34.776-.577 1.03-.731a5.871 5.871 0 0 1 .388-.215c.01-.005.018-.01.025-.012l.007-.004.004-.002.21.452-.209-.452.24-.11.226.136c.007-.011 0 0 0 0h.001l.003.002.01.007a21.673 21.673 0 0 0 .23.134c.162.093.402.23.71.4.615.339 1.505.812 2.595 1.343 2.182 1.064 5.16 2.359 8.355 3.292 3.201.935 6.583 1.495 9.587 1.124 2.987-.37 5.581-1.653 7.292-4.407.743-1.194.958-2.273.8-3.254-.16-.989-.709-1.942-1.611-2.857-1.815-1.843-4.955-3.427-8.672-4.718-7.417-2.574-16.856-3.888-21.717-3.908-5.283-.02-11.39 1.138-16.13 4.199-4.71 3.043-8.097 7.98-7.98 15.626l.019 1.19c.061 3.795.13 8.03 0 12.028l-1.056 1.449c-.092 1.972-.24 3.858-.472 5.571-.398 2.948-1.033 5.3-1.988 6.706-.471.692-.996 1.12-1.576 1.303-.577.181-1.282.145-2.16-.231h-.001a62.666 62.666 0 0 0-2.738-1.095l-.609.836c.98.36 1.964.75 2.953 1.173 1.038.444 1.995.536 2.856.265.858-.27 1.548-.879 2.102-1.694 1.094-1.61 1.75-4.163 2.151-7.13.294-2.174.456-4.615.538-7.153l-1.056 1.449c.203-4.382.126-9.191.057-13.485l-.019-1.167c-.122-8.009 3.453-13.257 8.436-16.475 4.954-3.2 11.272-4.38 16.677-4.36zm.547 99.818c-1.065-1.3-2.621-2.257-4.75-2.716-.828-.179-1.474-.241-1.963-.22-.494.022-.785.126-.945.24a.49.49 0 0 0-.218.4c-.012.2.048.483.225.845.353.722 1.099 1.611 2.162 2.501a17.03 17.03 0 0 0 3.906 2.421 16.01 16.01 0 0 0 3.381 1.095c-.205-1.797-.8-3.348-1.798-4.566z"/></g><g><g><path fill="#3fb1b5" d="M130.191 42.324H114.29V41.13h15.901z"/></g><g><path fill="#3fb1b5" d="M139 42.325c0 3.004-1.884 5.172-3.916 5.172s-3.915-2.168-3.915-5.172c0-3.003 1.883-5.171 3.915-5.171s3.915 2.168 3.915 5.171zm-3.916 6.366c2.955 0 5.114-2.997 5.114-6.366 0-3.368-2.16-6.365-5.114-6.365-2.955 0-5.114 2.997-5.114 6.365 0 3.369 2.16 6.366 5.114 6.366z"/></g></g><g><g><path fill="#66b0f0" d="M110.434 13.914a3.966 3.966 0 0 0-3.975 3.958v16.75h-1.199v-16.75c0-2.834 2.304-5.152 5.174-5.152h4.994c2.846 0 5.174 2.294 5.174 5.152h-1.199c0-2.195-1.787-3.958-3.975-3.958z"/></g><g><path fill="#fff" d="M110.673 53.07h-9.608c-2.457 0-4.455-1.99-4.455-4.436v-9.568c0-2.447 1.998-4.436 4.455-4.436h9.608c2.457 0 4.455 1.99 4.455 4.436v9.568c-.02 2.447-1.997 4.436-4.455 4.436z"/></g><g><path fill="#66b0f0" d="M110.673 35.224c2.126 0 3.855 1.722 3.855 3.839v9.565c-.018 2.124-1.734 3.842-3.855 3.842h-9.609c-2.126 0-3.855-1.722-3.855-3.84v-9.567c0-2.117 1.729-3.84 3.855-3.84zM96.01 48.63c0 2.776 2.266 5.032 5.054 5.032h9.609c2.792 0 5.031-2.26 5.054-5.027v-9.573c0-2.777-2.266-5.033-5.054-5.033h-9.609c-2.788 0-5.054 2.256-5.054 5.033z"/></g><g><path fill="#fff" d="M108.18 49.905h-4.694c-2.018 0-3.676-1.631-3.676-3.66V41.57c0-2.009 1.638-3.66 3.676-3.66h4.694c2.018 0 3.676 1.631 3.676 3.66v4.675a3.658 3.658 0 0 1-3.676 3.66z"/></g><g><path fill="#66b0f0" d="M108.18 38.504a3.073 3.073 0 0 1 3.076 3.063v4.675a3.06 3.06 0 0 1-3.076 3.063h-4.695a3.073 3.073 0 0 1-3.076-3.063v-4.675a3.073 3.073 0 0 1 3.076-3.063zm-8.97 7.738c0 2.36 1.929 4.256 4.275 4.256h4.694a4.256 4.256 0 0 0 4.276-4.256v-4.675c0-2.36-1.929-4.257-4.275-4.257h-4.695a4.269 4.269 0 0 0-4.275 4.257z"/></g><g><g><path fill="#66b0f0" d="M101.2 49.09l8.35-11.06.958.717-8.35 11.06z"/></g><g><path fill="#66b0f0" d="M99.57 47.198l7.231-9.548.957.719-7.231 9.548z"/></g><g><path fill="#66b0f0" d="M103.94 49.538l7.232-9.548.957.719-7.232 9.548z"/></g><g><path fill="#66b0f0" d="M106.84 49.547l4.535-5.987.957.719-4.535 5.987z"/></g><g><path fill="#66b0f0" d="M99.35 43.598l4.515-5.948.956.72-4.515 5.947z"/></g></g></g></g></g><g><g><path fill="#66b0f0" d="M98.15 325.8v-10.96h1.199v10.96c0 5.621-4.583 10.185-10.228 10.185H64.43v-1.193h24.691c4.983 0 9.03-4.03 9.03-8.992z"/></g><g><path fill="#66b0f0" d="M107.36 415.514V314.96h1.199v100.554z"/></g><g><path fill="#66b0f0" d="M102.903 416.114c-21.683 0-39.054 14.281-39.054 31.648H62.65c0-18.24 18.147-32.842 40.253-32.842h9.948c22.106 0 40.253 14.601 40.253 32.842h-1.199c0-17.367-17.372-31.648-39.054-31.648z"/></g><g><path fill="#ffcf2d" d="M204.024 316.489H58.994c-7.27 0-13.144-5.868-13.144-13.089h161.61z"/></g><g><path fill="#ffcf2d" d="M62.367 469.084c5.914 0 10.708-4.773 10.708-10.662 0-5.888-4.794-10.662-10.708-10.662-5.913 0-10.707 4.774-10.707 10.662 0 5.889 4.794 10.662 10.707 10.662z"/></g><g><path fill="#ffcf2d" d="M56.916 338.114h21.495a3.165 3.165 0 0 0 3.176-3.163v-.238a3.165 3.165 0 0 0-3.176-3.163H56.916a3.165 3.165 0 0 0-3.176 3.163v.238a3.165 3.165 0 0 0 3.176 3.163z"/></g><g><path fill="#ffcf2d" d="M12.044 211.288c-2.656-7.43 2.867-15.238 10.792-15.238h75.652a17.426 17.426 0 0 1 16.405 11.515l34.706 96.837H45.427zm1.13-.4l33.098 92.32h101.626l-34.133-95.24a16.228 16.228 0 0 0-15.277-10.724H22.836c-7.096 0-12.041 6.99-9.663 13.644z"/></g><g><path fill="#ffcf2d" d="M15.25 199.61h76.59a16.842 16.842 0 0 1 15.866 11.137v.001l33.547 93.653H50.948v-1.193h88.605l-32.975-92.058a15.644 15.644 0 0 0-14.738-10.346H15.25z"/></g><g><path fill="#ffcf2d" d="M152.327 469.084c5.914 0 10.708-4.773 10.708-10.662 0-5.888-4.794-10.662-10.708-10.662-5.913 0-10.707 4.774-10.707 10.662 0 5.889 4.794 10.662 10.707 10.662z"/></g></g></g></g></svg>