<svg xmlns="http://www.w3.org/2000/svg" width="600" height="440" viewBox="0 0 600 440"><g><g><g/><g><path fill="#d0f0e4" d="M600 419.863H0l107.705-63.673h386.238z"/></g><g><g><g><path fill="#fff" d="M344.006 108.578H236.06V46.09c0-4.231 3.426-7.661 7.652-7.661h92.641c4.227 0 7.653 3.43 7.653 7.66z"/></g><g><path fill="#66b0f0" d="M336.354 38.912a7.176 7.176 0 0 1 7.172 7.18v62.006H236.541V46.09c0-3.965 3.21-7.18 7.171-7.18zm7.652 69.667h.48V46.09c0-4.496-3.641-8.141-8.132-8.141h-92.642c-4.491 0-8.132 3.645-8.132 8.141v62.968h108.426z"/></g><g><path fill="#66b0f0" d="M335.855 104.509h-91.2a4.361 4.361 0 0 1-4.355-4.36V46.59a4.361 4.361 0 0 1 4.354-4.359h91.2a4.361 4.361 0 0 1 4.355 4.36v53.576a4.348 4.348 0 0 1-4.354 4.343z"/></g><g><path fill="#66b0f0" d="M362.932 123.244c4.13 2.693 3.17 7.965-1.713 7.965H214.165c-4.114 0-5.523-5.56-1.489-8.109z"/></g><g><path fill="#66b0f0" d="M212.538 122.62l150.537.144.119.078c2.199 1.434 3.113 3.609 2.732 5.49-.385 1.912-2.071 3.36-4.707 3.36H214.165c-2.31 0-3.866-1.577-4.27-3.481-.404-1.906.338-4.135 2.525-5.517zm.28.962c-1.756 1.169-2.297 2.95-1.983 4.43.32 1.513 1.526 2.718 3.33 2.718H361.22c2.248 0 3.484-1.19 3.766-2.588.282-1.398-.356-3.161-2.198-4.416z"/></g><g><path fill="#fff" d="M361.221 127.54H214.167c-2.626 0-3.666-3.094-1.489-4.44l23.42-14.52h107.61l19.21 14.664c1.921 1.459.801 4.295-1.697 4.295z"/></g><g><path fill="#66b0f0" d="M236.235 109.062l-23.304 14.448c-.892.551-1.102 1.425-.854 2.162.25.745.983 1.387 2.09 1.387H361.22c1.054 0 1.78-.59 2.059-1.296.276-.7.13-1.541-.652-2.135l-19.082-14.566zm-.273-.962H343.87l19.338 14.762c1.14.865 1.393 2.17.965 3.254-.425 1.077-1.508 1.905-2.952 1.905H214.167c-1.519 0-2.619-.905-3-2.043-.385-1.145-.027-2.491 1.258-3.286"/></g><g><g><path fill="#fff" d="M344.248 123.164H231.131c-2.017 0-2.817-2.388-1.152-3.413l16.264-11.171h84.526l14.775 11.283c1.489 1.122.625 3.301-1.296 3.301z"/></g><g><path fill="#66b0f0" d="M246.095 108.1h84.836l14.902 11.38h.002c.921.696 1.133 1.753.786 2.631-.343.871-1.218 1.535-2.373 1.535H231.131c-1.215 0-2.102-.73-2.412-1.65-.31-.924-.026-2.01.998-2.648zm.297.962l-16.151 11.092-.01.007c-.633.39-.778 1.005-.601 1.528.178.53.7.995 1.501.995h113.117c.765 0 1.283-.426 1.48-.926.194-.49.093-1.084-.472-1.51l-.002-.001-.001-.001-14.647-11.184z"/></g><g><g><path fill="#66b0f0" d="M337.912 123.51l-14.792-14.585.674-.685 14.792 14.584z"/></g><g><path fill="#66b0f0" d="M328.28 123.485l-13.03-14.584.716-.641 13.03 14.584z"/></g><g><path fill="#66b0f0" d="M319.202 123.454L307.9 108.869l.759-.589 11.302 14.584z"/></g><g><path fill="#66b0f0" d="M309.237 123.422l-9.557-14.585.803-.527 9.557 14.584z"/></g><g><path fill="#66b0f0" d="M297.478 123.307l-4.658-14.584.915-.293 4.658 14.584z"/></g></g><g><g><path fill="#66b0f0" d="M237.98 122.824l14.792-14.584.674.685-14.792 14.584z"/></g><g><path fill="#66b0f0" d="M247.57 122.844l13.031-14.584.716.641-13.031 14.584z"/></g><g><path fill="#66b0f0" d="M256.61 122.864l11.302-14.584.759.59-11.302 14.583z"/></g><g><path fill="#66b0f0" d="M266.52 122.894l9.557-14.584.803.527-9.557 14.585z"/></g><g><path fill="#66b0f0" d="M278.17 123.014l4.658-14.584.915.293-4.658 14.584z"/></g></g><g><path fill="#66b0f0" d="M288.38 108.58v14.76h-.96v-14.76z"/></g><g><path fill="#66b0f0" d="M337.925 114.512H238.32v-.962h99.605z"/></g></g></g><g><g><g><path fill="#ffcf2d" d="M328.267 104.51H247.28l1.457-10.337a16.246 16.246 0 0 1 11.622-13.35l19.738-4.103h15.353l19.738 4.103a16.179 16.179 0 0 1 11.622 13.35z"/></g><g><g><g><path fill="#fff" d="M293.25 88.526l-5.844-5.914c-.128-.128-.128-.336 0-.448.128-.129.336-.129.448 0l5.363 5.433 8.325-9.44a.325.325 0 0 1 .448-.032c.128.112.144.32.032.449z"/></g></g><g><g><path fill="#fff" d="M282.393 88.532l-8.773-9.953c-.112-.128-.112-.336.032-.448.129-.113.337-.113.449.032l8.324 9.44 5.363-5.434a.31.31 0 0 1 .448 0 .31.31 0 0 1 0 .449z"/></g></g><g><g><path fill="#fff" d="M287.913 92.389a1.395 1.395 0 0 1 0-2.789 1.395 1.395 0 0 1 0 2.789zm0-2.148a.752.752 0 0 0-.753.753.752.752 0 1 0 1.505 0 .752.752 0 0 0-.752-.753z"/></g></g><g><g><path fill="#fff" d="M287.913 100.249a1.395 1.395 0 0 1 0-2.789 1.395 1.395 0 0 1 0 2.789zm0-2.148a.752.752 0 0 0-.753.753.752.752 0 1 0 1.505 0 .752.752 0 0 0-.752-.753z"/></g></g></g></g><g><g><path fill="#fff" d="M280.008 104.169H253.85l-6.98-20.739 26.158-7.5z"/></g><g><path fill="#66b0f0" d="M273.26 75.53l7.157 28.959H253.62l-7.16-21.275zm-25.98 8.116l6.8 20.202H279.6l-6.802-27.519z"/></g><g><g><path fill="#fff" d="M255.205 86.127h-.496a2.29 2.29 0 0 1-2.289-2.292V76.64a.93.93 0 0 1 .928-.93h2.162a.93.93 0 0 1 .928.93v8.237c.016.69-.544 1.25-1.233 1.25z"/></g><g><path fill="#66b0f0" d="M255.51 76.031a.61.61 0 0 1 .608.61v8.244a.907.907 0 0 1-.912.922h-.497a1.97 1.97 0 0 1-1.969-1.971V76.64a.61.61 0 0 1 .609-.609zm-3.41 7.805a2.61 2.61 0 0 0 2.61 2.612h.496c.862 0 1.57-.702 1.552-1.574V76.64c0-.69-.56-1.25-1.248-1.25h-2.161c-.69 0-1.249.56-1.249 1.25z"/></g><g><path fill="#fff" d="M265.739 86.127h.496a2.29 2.29 0 0 0 2.29-2.292V76.64a.93.93 0 0 0-.93-.93h-2.177a.93.93 0 0 0-.928.93v8.237c0 .69.56 1.25 1.249 1.25z"/></g><g><path fill="#fff" d="M259.23 86.955h-1.153a1.613 1.613 0 0 1-1.617-1.62V76.65a.93.93 0 0 1 .929-.93h2.16a.93.93 0 0 1 .93.93v9.055c0 .689-.561 1.25-1.25 1.25z"/></g><g><path fill="#fff" d="M263.255 87.281h-.96a1.825 1.825 0 0 1-1.825-1.827V76.64a.93.93 0 0 1 .928-.93h2.162a.93.93 0 0 1 .928.93v9.391c0 .69-.56 1.25-1.233 1.25z"/></g><g><path fill="#66b0f0" d="M264.17 76.64c0-.69.56-1.25 1.249-1.25h2.177c.689 0 1.248.56 1.248 1.25v7.196a2.61 2.61 0 0 1-2.609 2.612h-.496a1.571 1.571 0 0 1-1.569-1.57zm1.249-.609a.61.61 0 0 0-.609.61v8.237c0 .512.417.93.929.93h.496a1.97 1.97 0 0 0 1.97-1.972V76.64a.61.61 0 0 0-.61-.609z"/></g><g><path fill="#66b0f0" d="M259.55 76.041a.61.61 0 0 1 .608.61v9.054a.93.93 0 0 1-.928.93h-1.153c-.72 0-1.297-.578-1.297-1.299V76.65a.61.61 0 0 1 .609-.609zm-3.41 9.295c0 1.075.864 1.94 1.937 1.94h1.153c.865 0 1.569-.705 1.569-1.571V76.65c0-.69-.56-1.25-1.25-1.25h-2.16c-.69 0-1.249.56-1.249 1.25z"/></g><g><path fill="#66b0f0" d="M263.56 76.031a.61.61 0 0 1 .608.61v9.39c0 .515-.42.93-.912.93h-.96a1.505 1.505 0 0 1-1.506-1.506V76.64a.61.61 0 0 1 .609-.609zm-3.41 9.424c0 1.186.96 2.147 2.145 2.147h.96c.853 0 1.554-.707 1.554-1.57V76.64c0-.69-.56-1.25-1.25-1.25h-2.16c-.69 0-1.249.56-1.249 1.25z"/></g></g></g><g><g><g><path fill="#fff" d="M295.468 67.29v11.7c0 2.019-3.442 3.67-7.684 3.67s-7.684-1.651-7.684-3.67v-11.7z"/></g><g><path fill="#66b0f0" d="M295.472 67.29c0 8.83-5.65 11.459-11.078 10.994h-.048c-2.401-.224-4.226-2.276-4.226-4.68v-6.298h15.352z"/></g></g><g><path fill="#fff" d="M299.042 64.277v.593a2.365 2.365 0 0 1-2.37 2.372h-1.216l.016.273a6.836 6.836 0 0 1-6.836 6.843h-1.68a6.836 6.836 0 0 1-6.836-6.843l.016-.273h-1.217a2.365 2.365 0 0 1-2.369-2.372v-.593a2.365 2.365 0 0 1 2.37-2.372h1.552l.176-2.9c0-.45.064-.882.192-1.283 4.579 1.138 9.942-1.81 11.382-2.692a4.235 4.235 0 0 1 2.738 3.959l.176 2.9h1.553a2.386 2.386 0 0 1 2.353 2.388z"/></g><g><path fill="#e57281" d="M296.785 61.909h-1.665l-.176-2.901a4.234 4.234 0 0 0-2.737-3.959c-1.441.866-6.804 3.815-11.382 2.693-.128.4-.192.833-.192 1.282l-.177 2.9h-1.04s-2.13-10.32-.032-12.211c1.553-1.395 15.768 1.65 17.337 3.814.88 1.234.064 8.382.064 8.382z"/></g><g><g><g><path fill="#66b0f0" d="M292.782 61.28a.23.23 0 0 1-.16-.064c-.016-.016-1.057-.865-2.722-.865a.246.246 0 0 1-.24-.24c0-.129.112-.241.24-.241 1.841 0 2.978.93 3.026.978.096.08.112.24.032.336-.032.064-.112.096-.176.096z"/></g></g><g><g><path fill="#66b0f0" d="M286.694 66.248c-.032 0-.064 0-.08-.016-.128-.048-.192-.192-.144-.304.449-1.186.337-2.677-.288-3.991-.368-.801-.896-1.378-1.36-1.539-1.025-.352-2.466.145-2.482.145-.128.048-.256-.016-.304-.145-.048-.128.016-.256.144-.304.064-.016 1.6-.545 2.786-.144.592.208 1.2.865 1.632 1.795.673 1.426.785 3.06.305 4.375-.016.064-.113.128-.209.128z"/></g></g><g><g><path fill="#66b0f0" d="M289.852 68.797c.016.128-.096.24-.224.256h-.016c-.128 0-.225-.096-.24-.224a2.176 2.176 0 0 0-.097-.465c-.688.336-1.312.449-1.825.449-1.008 0-1.616-.417-1.648-.45-.113-.08-.129-.223-.065-.336.08-.112.225-.128.337-.064.032.016.544.369 1.376.369.449 0 .993-.096 1.617-.4-.096-.161-.192-.257-.192-.257a.233.233 0 0 1 .016-.337c.096-.08.256-.08.336.016.032.048.577.657.625 1.443z"/></g></g><g><path fill="#66b0f0" d="M290.715 64.22c.22-.014.377-.383.35-.825-.028-.442-.229-.789-.45-.775-.22.014-.377.383-.35.825.028.442.23.788.45.775z"/></g><g><path fill="#66b0f0" d="M284.18 64.156c.203-.013.347-.353.321-.76-.025-.405-.21-.725-.413-.712-.203.013-.347.352-.322.759.026.406.21.725.414.713z"/></g><g><path fill="#66b0f0" d="M279.705 65.047a.246.246 0 0 1-.24-.24c0-.705-.576-1.266-1.265-1.266a.246.246 0 0 1-.24-.24c0-.129.112-.241.24-.241.96 0 1.745.785 1.745 1.747 0 .144-.112.24-.24.24z"/></g><g><path fill="#66b0f0" d="M295.81 65.047a.246.246 0 0 1-.24-.24 1.75 1.75 0 0 1 1.745-1.747c.128 0 .24.112.24.24 0 .129-.112.24-.24.24-.704 0-1.265.578-1.265 1.267 0 .144-.096.24-.24.24z"/></g></g></g></g></g><g><g><path fill="#66b0f0" d="M80.79 193.171L15.363 419.994l-.923-.267 65.427-226.823m0 0a11.197 11.197 0 0 1 10.755-8.104h416.142c4.933 0 9.299 3.23 10.721 7.954m-436.695.417a10.236 10.236 0 0 1 9.832-7.41h416.142c4.512 0 8.502 2.956 9.801 7.271L585.13 420l.919-.279-68.564-226.966"/></g><g><path fill="#66b0f0" d="M386.637 109.062H204.62v-.962h182.017z"/></g></g><g><g><path fill="#ffcf2d" d="M267.79 143.067h42.999v36.973H267.79v-36.973z"/></g><g><g><g><g><path fill="#9a3b82" d="M428.585 314.852L408.59 265.01h32.193z"/></g><g><path fill="#9a3b82" d="M373.72 198.486a24.774 24.774 0 0 1 21.9-13.206h24.765l16.825 13.206z"/></g></g><g><g><g><path fill="#3fb1b5" d="M467.614 256.842h-62.385l23.484 57.071c-1.633-2.661-11.414.112-21.772 6.474-10.229 6.283-17.145 13.847-15.736 16.604l-50.619-88.178c-13.127-22.245 2.882-50.323 28.687-50.323h139.803l.304.962c9.125 28.367-12.006 57.39-41.766 57.39z"/></g><g><path fill="#e6e6e6" d="M511.489 214.847a43.382 43.382 0 0 1-3.33 14.905L434.84 198.5h72.775l1.697 4.968c1.184 2.981 1.84 7.164 2.177 11.379z"/></g><g><path fill="#66b0f0" d="M428.727 313.91c1.633 2.66-5.507 9.92-15.848 16.283-10.358 6.363-19.979 9.552-21.612 6.892-1.633-2.66 5.331-10.177 15.689-16.54 10.341-6.362 20.122-9.295 21.771-6.635z"/></g><g><g><path fill="#fff" d="M475.532 202.55a.48.48 0 0 1 .569.372c2.529 11.998-6.616 23.29-18.863 23.29h-88.672c-6.947 0-11.312 7.487-7.922 13.546v.001l45.528 80.579a.48.48 0 0 1-.836.474l-45.528-80.581-.001-.002c-3.749-6.698 1.075-14.98 8.76-14.98h88.67c11.638 0 20.327-10.728 17.925-22.129a.48.48 0 0 1 .37-.57z"/></g><g><path fill="#fff" d="M421.885 313.542c-3.7.923-8.645 3.188-14.692 6.714-5.357 3.128-9.78 6.787-12.652 9.981-1.438 1.6-2.472 3.064-3.045 4.272-.287.605-.45 1.125-.499 1.554-.05.428.016.733.147.947a.481.481 0 0 1-.819.503c-.277-.451-.348-.992-.282-1.56.066-.569.271-1.194.585-1.856.629-1.324 1.728-2.867 3.2-4.503 2.946-3.277 7.449-6.997 12.881-10.168 6.072-3.541 11.11-5.86 14.944-6.817 1.917-.478 3.569-.624 4.915-.388 1.361.239 2.421.874 3.09 1.949a.481.481 0 0 1-.814.509c-.5-.801-1.297-1.31-2.442-1.51-1.16-.205-2.666-.088-4.517.373z"/></g><g><path fill="#fff" d="M399.675 243.338a.48.48 0 0 1 .628.257l29.744 70.997a.481.481 0 0 1-.886.372l-29.743-70.997a.481.481 0 0 1 .257-.63z"/></g><g><path fill="#fff" d="M440.087 198.442H367.52v-.962h72.567z"/></g></g></g><g><g><path fill="#e57281" d="M408.567 340.754l-4.322-5.898-5.955-8.11c2.433-2.05 5.363-4.182 8.645-6.202 6.531-4.006 12.822-6.667 17-7.404l2.898 5.786 3.618 7.212c-2.561 9.119-21.883 14.616-21.883 14.616z"/></g><g><path fill="#9a3b82" d="M426.853 318.926c-2.69 3.285-7.748 7.436-13.975 11.266-2.994 1.843-5.923 3.414-8.613 4.664l-5.955-8.11c2.433-2.05 5.363-4.182 8.645-6.202 6.531-4.006 12.822-6.667 17-7.404z"/></g></g><g><g><path fill="#fff" d="M450.243 357.916l-43.927 31.589c-3.73 2.596-9.525 4.76-8.757-4.632 1.073-12.95 3.938-32.213 11.014-44.137.304-.08 19.323-5.577 21.884-14.616l20.027 14.247c5.763 4.488 5.635 13.238-.24 17.55z"/></g><g><path fill="#ffcf2d" d="M430.18 325.34l20.59 14.648.009.006c6.014 4.684 5.881 13.817-.251 18.317l-.002.001-43.933 31.592-.003.002c-.951.662-2.046 1.305-3.146 1.744-1.092.436-2.238.69-3.273.515-1.071-.182-1.97-.817-2.528-2.034-.544-1.186-.757-2.908-.562-5.29v-.001c.537-6.489 1.524-14.564 3.265-22.517 1.74-7.945 4.239-15.8 7.815-21.826l.1-.17.19-.05h.005l.015-.005a17.426 17.426 0 0 0 .233-.068 65.043 65.043 0 0 0 2.896-.96 66.945 66.945 0 0 0 6.857-2.882c2.538-1.248 5.128-2.765 7.236-4.52 2.113-1.758 3.7-3.72 4.302-5.847zm.53 1.557c-.787 2.132-2.417 4.032-4.403 5.685-2.188 1.821-4.852 3.378-7.426 4.644-4.625 2.274-9.018 3.638-9.991 3.926-3.449 5.876-5.891 13.546-7.606 21.377-1.729 7.898-2.71 15.93-3.246 22.39-.189 2.313.034 3.843.478 4.811.429.937 1.067 1.36 1.815 1.487.784.133 1.738-.053 2.758-.46 1.01-.403 2.038-1.003 2.95-1.638a.06.06 0 0 0 .003-.003l43.918-31.58.002-.002c5.613-4.12 5.738-12.481.235-16.774z"/></g><g><path fill="#ffcf2d" d="M432.798 327.438a.481.481 0 0 1 .33.594c-.793 2.796-2.654 5.313-5.01 7.497-2.36 2.186-5.241 4.063-8.124 5.575-2.884 1.512-5.783 2.666-8.186 3.402-1.202.368-2.286.634-3.188.786-.886.15-1.644.2-2.168.102a.48.48 0 0 1 .177-.945c.348.065.965.042 1.831-.105.85-.144 1.893-.398 3.067-.757 2.346-.719 5.19-1.85 8.022-3.335 2.832-1.485 5.637-3.316 7.916-5.429 2.283-2.115 4.012-4.488 4.74-7.053a.48.48 0 0 1 .593-.332z"/></g><g><path fill="#ffcf2d" d="M401.81 386.251s28.671-39.873 49.066-37.63"/></g><g><path fill="#ffcf2d" d="M400.06 385.346l-.39-.281.39.282-.006.007-.005.007c-1.568 2.01-1.694 3.52-1.322 4.452.376.94 1.315 1.451 2.24 1.391a.48.48 0 0 1 .063.96c-1.3.084-2.65-.631-3.195-1.994-.547-1.371-.226-3.24 1.451-5.394l.017-.024.066-.09.255-.347c.225-.304.558-.749.988-1.314.86-1.13 2.112-2.74 3.68-4.664 3.137-3.848 7.542-8.957 12.615-13.995 5.071-5.035 10.822-10.013 16.652-13.588 5.818-3.567 11.778-5.778 17.246-5.175 1.773.19 3.013 1.02 3.69 2.168.67 1.137.754 2.53.332 3.798a.48.48 0 1 1-.911-.304c.346-1.039.262-2.138-.249-3.005-.503-.855-1.456-1.54-2.965-1.701h-.001c-5.154-.568-10.89 1.513-16.64 5.04-5.741 3.52-11.433 8.44-16.477 13.45-5.043 5.007-9.425 10.088-12.547 13.92a180.654 180.654 0 0 0-3.661 4.64 121.546 121.546 0 0 0-1.296 1.733l-.016.022z"/></g></g></g></g><g><g><path fill="#fff" d="M511.645 218.1c-10.15-2.404-35.411-8.734-64.227-15.401-13.543-3.125-24.877-12.356-30.72-24.985l-26.238-56.83 15.88-25.194a28.48 28.48 0 0 1 22.348-13.254l15.625-.961c15.752-.962 28.399 8.878 33.201 23.927l31.777 93.082c3.49 8.718 2.354 19.616 2.354 19.616z"/></g><g><path fill="#fe5244" d="M477.062 105.55l.002.004.001.005 31.781 93.093.005.012c1.716 4.286 2.3 9.128 2.451 12.918a55.123 55.123 0 0 1-.009 4.659 40.48 40.48 0 0 1-.074 1.264c-3.11-.74-7.49-1.81-12.854-3.119-12.705-3.101-30.925-7.549-50.833-12.155-13.398-3.091-24.612-12.224-30.393-24.718l-26.128-56.593 15.741-24.973a28 28 0 0 1 21.971-13.03l15.624-.962c15.507-.946 27.971 8.728 32.715 23.594zm35.066 112.598l.001-.006.002-.025.004-.042.005-.055a41.523 41.523 0 0 0 .113-1.736c.052-1.169.086-2.817.009-4.741-.153-3.836-.744-8.796-2.515-13.225l-31.77-93.061-.001-.005c-4.862-15.229-17.69-25.233-33.687-24.256l-15.625.961a28.961 28.961 0 0 0-22.724 13.478l-16.02 25.414 26.347 57.067c5.906 12.764 17.36 22.094 31.049 25.252 19.903 4.605 38.102 9.048 50.805 12.148 5.689 1.389 10.275 2.509 13.418 3.253l.532.126.057-.544z"/></g><g><path fill="#fe5244" d="M403.87 124.337l.405-.259.405-.258v.001l.004.006a4.603 4.603 0 0 0 .086.13c.063.092.16.23.29.409.259.356.652.871 1.184 1.5a37.498 37.498 0 0 0 4.892 4.773c4.415 3.605 11.185 7.571 20.602 9.007l-.145.95c-9.617-1.465-16.543-5.52-21.064-9.212a38.457 38.457 0 0 1-5.018-4.896 27.345 27.345 0 0 1-1.228-1.556 16.479 16.479 0 0 1-.405-.583l-.006-.009-.001-.002z"/></g><g><g><path fill="#ffcf2d" d="M415.55 100.166c-.864-.93-2.385-.673-2.913.465-.593 1.282.48 2.709 1.873 2.5 1.424-.208 2.017-1.923 1.04-2.965z"/></g><g><path fill="#fe5244" d="M412.202 100.43c.67-1.444 2.6-1.773 3.7-.591 1.241 1.325.487 3.504-1.321 3.769-1.769.264-3.132-1.547-2.38-3.178zm.872.404c-.431.934.35 1.975 1.366 1.823h.001a1.29 1.29 0 0 0 .76-2.16l-.001-.002a1.298 1.298 0 0 0-2.126.34z"/></g><g><path fill="#ffcf2d" d="M455.43 127.556c-.864-.93-2.385-.673-2.913.465-.593 1.282.48 2.709 1.873 2.5 1.424-.208 2.017-1.923 1.04-2.965z"/></g><g><path fill="#fe5244" d="M452.082 127.82c.67-1.444 2.6-1.773 3.7-.591 1.241 1.325.487 3.504-1.321 3.769-1.769.264-3.132-1.547-2.38-3.178zm.871.404c-.43.934.35 1.975 1.367 1.823h.001a1.29 1.29 0 0 0 .76-2.16l-.001-.002a1.298 1.298 0 0 0-2.127.34z"/></g><g><path fill="#ffcf2d" d="M468.06 138.776c-.864-.93-2.385-.673-2.913.465-.593 1.282.48 2.709 1.873 2.5 1.408-.192 2-1.907 1.04-2.965z"/></g><g><path fill="#fe5244" d="M464.712 139.04c.67-1.444 2.601-1.773 3.701-.59l.004.004c1.208 1.33.479 3.515-1.328 3.764-1.768.262-3.13-1.548-2.377-3.178zm.872.404c-.431.934.35 1.975 1.366 1.823l.006-.001c1.008-.138 1.461-1.379.752-2.163a1.298 1.298 0 0 0-2.124.341z"/></g><g><path fill="#ffcf2d" d="M492.28 202.256c-.864-.93-2.385-.673-2.913.465-.593 1.282.48 2.709 1.873 2.5 1.408-.208 2-1.907 1.04-2.965z"/></g><g><path fill="#fe5244" d="M488.932 202.52c.67-1.444 2.601-1.773 3.701-.59l.004.004c1.213 1.336.471 3.498-1.326 3.764-1.768.264-3.132-1.547-2.38-3.178zm.872.404c-.431.934.35 1.975 1.366 1.823 1.02-.151 1.463-1.385.758-2.164a1.298 1.298 0 0 0-2.124.341z"/></g><g><path fill="#ffcf2d" d="M478.72 171.916c-.864-.93-2.385-.673-2.913.465-.593 1.282.48 2.709 1.872 2.5 1.425-.208 2.018-1.923 1.041-2.965z"/></g><g><path fill="#fe5244" d="M475.372 172.18c.67-1.444 2.6-1.773 3.7-.591 1.241 1.325.487 3.504-1.321 3.769-1.769.264-3.132-1.547-2.38-3.178h.001zm.872.404c-.431.934.35 1.975 1.366 1.823h.001a1.29 1.29 0 0 0 .76-2.16l-.001-.002a1.298 1.298 0 0 0-2.126.34z"/></g><g><path fill="#ffcf2d" d="M484.337 150.087c-1.249.16-1.937 1.555-1.313 2.644a1.769 1.769 0 0 0 3.122-.08c.656-1.282-.4-2.756-1.81-2.564z"/></g><g><path fill="#fe5244" d="M486.574 152.87c-.813 1.606-3.071 1.668-3.966.101-.794-1.385.079-3.154 1.666-3.36 1.79-.243 3.133 1.63 2.3 3.26zm-.855-.437c.479-.935-.29-2.009-1.317-1.869h-.003a1.3 1.3 0 0 0-.958 1.93c.515.9 1.809.867 2.277-.059z"/></g><g><path fill="#ffcf2d" d="M494.567 182.457c-1.249.16-1.937 1.555-1.313 2.644a1.769 1.769 0 0 0 3.122-.08c.656-1.282-.385-2.756-1.81-2.564z"/></g><g><path fill="#fe5244" d="M496.804 185.24c-.813 1.606-3.071 1.668-3.966.101-.794-1.385.079-3.155 1.667-3.36 1.809-.243 3.13 1.633 2.3 3.26zm-.855-.437a1.285 1.285 0 0 0-1.317-1.868h-.004a1.3 1.3 0 0 0-.957 1.928c.515.901 1.809.868 2.277-.058z"/></g><g><path fill="#ffcf2d" d="M452.14 147.536c-.864-.93-2.385-.673-2.913.465-.593 1.282.48 2.709 1.873 2.5 1.408-.208 2-1.907 1.04-2.965z"/></g><g><path fill="#fe5244" d="M448.792 147.8c.67-1.444 2.601-1.773 3.7-.59l.005.004c1.213 1.336.471 3.498-1.326 3.764-1.769.264-3.132-1.547-2.38-3.178zm.872.404c-.431.934.35 1.975 1.366 1.823 1.02-.151 1.463-1.385.758-2.164a1.298 1.298 0 0 0-2.124.341z"/></g><g><path fill="#ffcf2d" d="M443.32 165.696c-.864-.93-2.385-.673-2.913.465-.593 1.282.48 2.709 1.873 2.5 1.424-.208 2.017-1.923 1.04-2.965z"/></g><g><path fill="#fe5244" d="M439.972 165.96c.67-1.444 2.6-1.773 3.7-.591 1.241 1.325.487 3.504-1.321 3.769-1.769.264-3.132-1.547-2.38-3.178h.001zm.872.404c-.431.934.35 1.975 1.366 1.823h.001a1.29 1.29 0 0 0 .76-2.16l-.001-.002a1.298 1.298 0 0 0-2.126.34z"/></g><g><path fill="#ffcf2d" d="M427.542 159.354c.928-.866.672-2.388-.464-2.917-1.281-.593-2.706.48-2.498 1.875.208 1.41 1.905 2.003 2.962 1.042z"/></g><g><path fill="#fe5244" d="M424.106 158.384c-.264-1.77 1.545-3.136 3.174-2.382 1.442.671 1.77 2.604.59 3.705l-.005.004c-1.334 1.215-3.493.472-3.76-1.327zm2.77-1.51c-.932-.43-1.972.351-1.82 1.369.15 1.021 1.383 1.464 2.161.758.673-.63.49-1.74-.34-2.126z"/></g><g><path fill="#ffcf2d" d="M441.552 190.604c.928-.866.672-2.388-.464-2.917-1.281-.593-2.706.48-2.498 1.875.208 1.426 1.921 2.02 2.962 1.042z"/></g><g><path fill="#fe5244" d="M438.106 189.634c-.264-1.77 1.545-3.136 3.174-2.382 1.442.671 1.77 2.604.59 3.705-1.323 1.242-3.5.487-3.764-1.323zm2.77-1.51c-.932-.43-1.972.351-1.82 1.369v.001c.152 1.042 1.4 1.472 2.158.76h.001a1.3 1.3 0 0 0-.339-2.13z"/></g><g><path fill="#ffcf2d" d="M465.132 163.794c.929-.866.672-2.388-.464-2.917-1.28-.593-2.706.48-2.498 1.875.208 1.41 1.921 2.02 2.962 1.042z"/></g><g><path fill="#fe5244" d="M461.696 162.814c-.264-1.77 1.545-3.136 3.174-2.382 1.442.671 1.77 2.604.59 3.705-1.327 1.245-3.5.466-3.764-1.323zm2.77-1.51c-.932-.43-1.972.351-1.82 1.369.152 1.032 1.404 1.47 2.158.762l.001-.002a1.301 1.301 0 0 0-.339-2.128z"/></g><g><path fill="#ffcf2d" d="M473.182 197.354c.928-.866.672-2.388-.464-2.917-1.281-.593-2.706.48-2.498 1.875.192 1.426 1.905 2.02 2.962 1.042z"/></g><g><path fill="#fe5244" d="M469.745 196.371c-.261-1.77 1.547-3.133 3.175-2.379 1.443.671 1.771 2.604.59 3.705l-.001.001c-1.332 1.233-3.516.496-3.764-1.327zm2.771-1.506c-.932-.432-1.972.35-1.82 1.368v.006c.14 1.028 1.38 1.475 2.16.754a1.3 1.3 0 0 0-.34-2.128z"/></g><g><path fill="#ffcf2d" d="M424.9 129.386c-.864-.93-2.385-.673-2.913.465-.593 1.282.48 2.709 1.873 2.5 1.424-.208 2.017-1.923 1.04-2.965z"/></g><g><path fill="#fe5244" d="M421.552 129.64c.67-1.444 2.6-1.773 3.7-.591 1.241 1.325.487 3.504-1.321 3.769-1.769.264-3.132-1.547-2.38-3.178zm.872.404c-.431.934.35 1.975 1.366 1.823h.001a1.29 1.29 0 0 0 .76-2.16l-.001-.002a1.298 1.298 0 0 0-2.126.34z"/></g><g><path fill="#ffcf2d" d="M427.76 87.806c-.864-.93-2.385-.673-2.913.465-.593 1.282.48 2.709 1.873 2.5 1.424-.208 2.017-1.923 1.04-2.965z"/></g><g><path fill="#fe5244" d="M424.412 88.07c.67-1.444 2.6-1.773 3.7-.591 1.241 1.325.487 3.504-1.321 3.769-1.769.264-3.132-1.547-2.38-3.178zm.872.404c-.431.934.35 1.975 1.366 1.823h.001a1.29 1.29 0 0 0 .76-2.16l-.001-.002a1.298 1.298 0 0 0-2.126.34z"/></g><g><path fill="#ffcf2d" d="M455.43 87.806c-.864-.93-2.385-.673-2.913.465-.593 1.282.48 2.709 1.873 2.5 1.424-.208 2.017-1.923 1.04-2.965z"/></g><g><path fill="#fe5244" d="M452.082 88.07c.67-1.444 2.6-1.773 3.7-.591 1.241 1.325.487 3.504-1.321 3.769-1.769.264-3.132-1.547-2.38-3.178zm.871.404c-.43.934.35 1.975 1.367 1.823h.001a1.29 1.29 0 0 0 .76-2.16l-.001-.002a1.298 1.298 0 0 0-2.127.34z"/></g><g><path fill="#ffcf2d" d="M455.472 105.759a1.778 1.778 0 0 0-.624 2.884c.976 1.01 2.69.545 3.01-.833.32-1.394-1.057-2.58-2.386-2.051z"/></g><g><path fill="#fe5244" d="M457.39 107.703a1.297 1.297 0 1 0 0 0zm-2.095-2.39c1.69-.672 3.438.836 3.031 2.606v.002c-.407 1.752-2.584 2.34-3.823 1.058-1.12-1.162-.69-3.076.792-3.666"/></g><g><path fill="#ffcf2d" d="M439.758 95.533a1.781 1.781 0 0 0-.913 2.805c.88 1.106 2.626.801 3.074-.53.464-1.361-.8-2.676-2.161-2.275z"/></g><g><path fill="#fe5244" d="M439.624 95.073c1.735-.51 3.339 1.163 2.75 2.892-.571 1.694-2.789 2.074-3.904.674a.43.43 0 0 1-.004-.005c-.974-1.26-.387-3.113 1.158-3.56zm1.84 2.582c.34-.995-.585-1.95-1.57-1.66l-.002.002a1.3 1.3 0 0 0-.669 2.045c.647.808 1.916.58 2.241-.385z"/></g><g><path fill="#ffcf2d" d="M437.437 139.922c-1.249.144-1.953 1.522-1.345 2.628.688 1.234 2.465 1.218 3.122-.032.672-1.266-.352-2.756-1.777-2.596z"/></g><g><path fill="#fe5244" d="M435.673 142.786l-.001-.003c-.771-1.402.119-3.154 1.71-3.338h.002c1.802-.203 3.11 1.686 2.255 3.299-.836 1.59-3.093 1.605-3.966.042zm.84-.468c.504.903 1.8.886 2.276-.023l.001-.002c.488-.919-.252-2.01-1.298-1.892-.905.105-1.423 1.108-.98 1.917z"/></g><g><path fill="#ffcf2d" d="M423.717 173.312c-1.249.144-1.953 1.522-1.345 2.628.688 1.234 2.465 1.218 3.122-.032.672-1.266-.352-2.756-1.777-2.596z"/></g><g><path fill="#fe5244" d="M425.919 176.134c-.836 1.59-3.093 1.605-3.966.042l-.001-.003c-.771-1.402.119-3.154 1.71-3.338h.002c1.802-.203 3.11 1.686 2.255 3.299zm-3.126-.426c.504.903 1.8.886 2.276-.023l.001-.002c.488-.919-.252-2.01-1.298-1.892-.905.105-1.423 1.108-.98 1.917z"/></g><g><path fill="#ffcf2d" d="M428.328 108.768a1.781 1.781 0 0 0-.913 2.805c.88 1.105 2.626.8 3.074-.53.464-1.346-.784-2.66-2.161-2.275z"/></g><g><path fill="#fe5244" d="M430.944 111.2c-.572 1.693-2.79 2.074-3.904.673a.705.705 0 0 1-.004-.005c-.974-1.26-.386-3.113 1.159-3.56l.004-.002c1.743-.487 3.336 1.176 2.745 2.894zm-3.15.077c.646.808 1.915.58 2.24-.386l.001-.003c.336-.973-.566-1.937-1.576-1.656a1.3 1.3 0 0 0-.666 2.045z"/></g><g><path fill="#ffcf2d" d="M441.578 117.743a1.781 1.781 0 0 0-.913 2.805c.88 1.106 2.626.801 3.074-.53.464-1.361-.784-2.676-2.161-2.275z"/></g><g><path fill="#fe5244" d="M441.444 117.283c1.753-.51 3.338 1.165 2.75 2.892-.571 1.694-2.789 2.074-3.904.674a.55.55 0 0 1-.004-.005c-.974-1.26-.386-3.113 1.158-3.561zm1.84 2.582c.34-.997-.571-1.95-1.572-1.659a1.3 1.3 0 0 0-.669 2.046c.647.808 1.916.58 2.241-.385v-.002z"/></g><g><path fill="#ffcf2d" d="M412.878 117.362c.8-.977.368-2.452-.848-2.82-1.345-.417-2.626.833-2.226 2.18.4 1.377 2.162 1.746 3.074.64z"/></g><g><path fill="#fe5244" d="M412.172 114.083c1.548.47 2.092 2.347 1.079 3.585l-.001.001c-1.16 1.406-3.397.934-3.905-.811-.51-1.722 1.124-3.301 2.827-2.775zm-.283.919c-.986-.306-1.911.613-1.623 1.583v.003a1.291 1.291 0 0 0 2.243.47 1.287 1.287 0 0 0-.617-2.055z"/></g><g><path fill="#ffcf2d" d="M473.568 117.412c.8-.977.368-2.452-.848-2.82-1.345-.417-2.626.833-2.226 2.18.385 1.377 2.162 1.746 3.074.64z"/></g><g><path fill="#fe5244" d="M472.861 114.133c1.55.47 2.093 2.347 1.08 3.585l-.001.001c-1.155 1.4-3.413.941-3.906-.814-.508-1.72 1.126-3.298 2.827-2.772zm-.282.919c-.986-.306-1.911.613-1.623 1.583l.002.008c.279.998 1.571 1.275 2.24.465a1.287 1.287 0 0 0-.616-2.055z"/></g><g><path fill="#ffcf2d" d="M458.168 182.382c.8-.977.368-2.452-.848-2.82-1.345-.417-2.626.833-2.226 2.18.385 1.361 2.162 1.73 3.074.64z"/></g><g><path fill="#fe5244" d="M457.452 179.103c1.548.47 2.092 2.347 1.079 3.585l-.003.004c-1.155 1.378-3.41.924-3.904-.816-.508-1.72 1.126-3.3 2.828-2.773zm-.283.919c-.986-.306-1.911.613-1.623 1.583l.002.007c.277.981 1.571 1.262 2.242.464a1.287 1.287 0 0 0-.618-2.053z"/></g></g></g><g><g><g><path fill="#e57281" d="M445.394 80.945l-1.073.048-15.624.962a28.272 28.272 0 0 0-11.254 3.093l-4.803-14.392 21.404-15.706z"/></g><g><path fill="#9a3b82" d="M417.379 84.83c4.45-2.02 8.004-5.61 10.02-10.065l7.781-17.229-1.137-2.596-21.403 15.706z"/></g></g><g><g><path fill="#e57281" d="M435.418 56.4c0 1.49-.608 2.837-1.585 3.814a5.369 5.369 0 0 1-3.81 1.587h-4.706c-1.857 7.228-9.045 12.18-16.777 10.818l-3.538-.625c-3.874-.69-6.515-4.311-5.971-8.206l4.146-20.786c.72-4.44 5.283-7.148 9.525-5.625l6.868 2.756a9.213 9.213 0 0 1 6.211 8.703v2.003l4.242.16a5.4 5.4 0 0 1 5.395 5.401z"/></g><g><g><path fill="#9a3b82" d="M431.17 54.101a3.325 3.325 0 0 0-3.33 3.334.4.4 0 1 1-.8 0 4.126 4.126 0 0 1 4.13-4.135.4.4 0 0 1 0 .801z"/></g><g><path fill="#9a3b82" d="M405.08 47.37a.4.4 0 0 1 .4-.4v0h.016a2.228 2.228 0 0 1 .16.007c.105.007.256.02.443.047.375.054.896.16 1.495.371 1.2.424 2.713 1.271 3.97 2.957a.401.401 0 0 1-.642.48c-1.144-1.535-2.513-2.3-3.594-2.68a7.063 7.063 0 0 0-1.341-.334 5.075 5.075 0 0 0-.503-.047h-.004"/></g><g><path fill="#9a3b82" d="M407.714 53.373c.17-.932-.046-1.752-.481-1.831-.435-.08-.925.612-1.094 1.544-.169.932.046 1.751.481 1.83.435.08.925-.612 1.094-1.543z"/></g></g></g><g><g><path fill="#ffcf2d" d="M425.775 50.932a12.916 12.916 0 0 1-1.985-.24c-2.914-.593-4.979-2.276-5.123-5.128-.08-1.379.288-3.013 1.217-4.92-1.393.24-3.57.576-5.988.849-3.393.385-7.316.609-10.373.192-3.058-.417-5.283-1.458-5.283-3.622 0-2.356 1.953-3.173 4.739-3.125-2.946-3.11-3.57-7.5 1.52-10.177 2.946-1.554 6.5.08 9.157 2.164.416-1.459 1.921-2.789 5.123-3.254 9.285-1.362 11.446 7.5 11.894 10.177.224-.689.625-1.81 1.137-2.949 1.137-2.5 2.273-3.862 3.378-4.038.752-.129 1.457.272 2.097 1.186.16.224.208.512.144.833-.176.897-1.297 2.148-3.426 3.814-.4.305-.784.593-1.153.866 5.523-1.955 10.854 2.324 10.854 6.603 0 3.189-5.89 12.613-8.292 16.315v-.08a5.4 5.4 0 0 0-5.395-5.401zm5.587-17.116c1.905-1.298 5.186-3.766 5.443-5.064.032-.176-.017-.273-.049-.337-.432-.609-.864-.93-1.312-.93-.064 0-.112 0-.16.017-1.585.272-3.17 4.103-3.922 6.314z"/></g></g></g><g><g><g><path fill="#e57281" d="M385.641 173.755H283.186c-2.53 0-4.05-2.789-2.705-4.92l13.639-21.444a9.634 9.634 0 0 1 8.132-4.471h69.35z"/></g><g><path fill="#fe5244" d="M304.51 142.94l8.164-13.462a2.687 2.687 0 0 1 2.29-1.298c2.097 0 3.377 2.292 2.289 4.087l-6.484 10.673z"/></g><g><path fill="#9a3b82" d="M385.647 173.755H362.61a241.88 241.88 0 0 1-.16-.16c-5.603-5.77-7.988-14.52-4.834-22.95l3.281-7.725h10.71z"/></g><g><path fill="#e57281" d="M297.666 159.37h-12.84a2.42 2.42 0 0 0-2.096 1.218l-1.361 2.372c-.913 1.603.24 3.606 2.097 3.606h10.326c1.793 0 3.458-.93 4.402-2.468l1.105-1.811c.768-1.282-.144-2.917-1.633-2.917z"/></g><g><path fill="#e57281" d="M294.346 166.56h-12.84a2.42 2.42 0 0 0-2.096 1.218l-1.361 2.372c-.913 1.603.24 3.606 2.097 3.606h10.326c1.793 0 3.458-.93 4.402-2.468l1.105-1.811c.784-1.282-.144-2.917-1.633-2.917z"/></g><g><path fill="#e57281" d="M301.326 152.08h-12.84a2.42 2.42 0 0 0-2.096 1.218l-1.361 2.372c-.913 1.603.24 3.606 2.097 3.606h10.326c1.793 0 3.458-.93 4.402-2.468l1.105-1.811c.784-1.282-.144-2.917-1.633-2.917z"/></g><g><path fill="#9a3b82" d="M282.383 160.39a2.82 2.82 0 0 1 2.445-1.42h12.838c1.805 0 2.902 1.979 1.976 3.524v.001l-1.106 1.812v.001a5.562 5.562 0 0 1-4.744 2.66h-10.325c-2.165 0-3.51-2.337-2.445-4.206zm-.666 2.769c-.76 1.337.2 3.007 1.75 3.007h10.325c1.654 0 3.19-.857 4.061-2.277l1.103-1.808c.61-1.02-.118-2.31-1.29-2.31h-12.838a2.02 2.02 0 0 0-1.75 1.017zm1.36-2.37z"/></g><g><path fill="#9a3b82" d="M279.063 167.58a2.82 2.82 0 0 1 2.445-1.42h12.838c1.8 0 2.924 1.975 1.975 3.527l-1.105 1.81v.001a5.562 5.562 0 0 1-4.744 2.66h-10.325c-2.165 0-3.51-2.337-2.445-4.206zm.694.398l-1.36 2.371c-.76 1.337.201 3.007 1.75 3.007h10.325c1.654 0 3.19-.857 4.061-2.277l1.105-1.81c.62-1.014-.113-2.308-1.292-2.308h-12.838a2.02 2.02 0 0 0-1.75 1.017z"/></g><g><path fill="#9a3b82" d="M286.043 153.09a2.82 2.82 0 0 1 2.445-1.42h12.839c1.798 0 2.923 1.975 1.974 3.527l-1.105 1.81v.001a5.562 5.562 0 0 1-4.744 2.66h-10.325c-2.165 0-3.51-2.337-2.445-4.206v-.001zm-.666 2.769c-.76 1.337.201 3.007 1.75 3.007h10.325c1.654 0 3.19-.857 4.062-2.277l1.104-1.81c.62-1.014-.113-2.308-1.292-2.308h-12.838a2.02 2.02 0 0 0-1.75 1.017z"/></g><g><path fill="#e57281" d="M319.916 162.801a15.902 15.902 0 0 1-10.486-3.942l-4.866-4.263h-4.483l-1.152 1.234c-2.065 2.212-4.61 3.478-7.636 3.478h-2.146c-1.12 0-1.809-1.25-1.2-2.196l5.395-8.462h26.59v14.151z"/></g><g><path fill="#9a3b82" d="M304.414 154.987l4.754 4.164a16.354 16.354 0 0 0 10.749 4.042.4.4 0 0 0 0-.801c-3.76 0-7.397-1.375-10.222-3.844m-16.137-10.245a.4.4 0 0 1 .122.553l-5.395 8.462v.002c-.436.676.057 1.578.864 1.578h2.145c2.9 0 5.344-1.194 7.342-3.35l.001-.001 1.272-1.361h4.806l4.98 4.362m-5.28-3.56h-4.159l-1.033 1.105c-2.132 2.3-4.78 3.606-7.93 3.606h-2.144c-1.435 0-2.319-1.598-1.538-2.812v-.001l5.394-8.46a.4.4 0 0 1 .553-.123"/></g></g><g><g><path fill="#e57281" d="M428.008 143.792l-24.445 27.341a27.08 27.08 0 0 1-20.203 9.039c-15.24 0-25.79-15.225-20.442-29.52l29.039-68.305-9.813-5.497a4.798 4.798 0 0 1-1.761-4.6l1.665-11.235c.512-2.5 3.057-4.455 5.539-5.032l11.494-2.596c.976-.225 1.873.609 1.713 1.586l-1.665 8.67c-.657 4.232 2.193 7.886 6.42 8.607 3.457.593 5.89 4.07 5.57 7.564l-7.828 48.881c-.016.032 8.004 12.549 24.717 15.097z"/></g><g><path fill="#9a3b82" d="M409.316 91.035a.4.4 0 0 1 .335.457l-9.445 61.397a.4.4 0 1 1-.791-.122l9.445-61.397a.4.4 0 0 1 .456-.335z"/></g><g><path fill="#9a3b82" d="M389.693 61.43a.4.4 0 0 1 .387.414l-.128 3.973c-.043 1.473.832 2.727 2.032 3.076l14.696 2.978a.4.4 0 0 1-.158.786l-14.727-2.984-.015-.005c-1.61-.457-2.68-2.084-2.628-3.875l.128-3.975a.4.4 0 0 1 .413-.388z"/></g><g><path fill="#9a3b82" d="M398.905 53.364a1.544 1.544 0 0 1 1.879 1.773l-1.52 8.695c-.51 3.674 1.98 7.093 5.637 7.748l11.758 1.569a.4.4 0 0 1-.106.794l-11.775-1.571-.008-.002c-4.085-.726-6.872-4.546-6.298-8.655l.001-.007 1.522-8.71a.743.743 0 0 0-.905-.855h-.001l-12.008 2.805a.4.4 0 1 1-.182-.78l12.004-2.804h.002z"/></g><g><path fill="#fe5244" d="M442.29 128.633l-31.826 35.45-.714-.642 31.825-35.451z"/></g><g><path fill="#9a3b82" d="M391.89 82.36a.4.4 0 0 1 .4-.4h5.62a.4.4 0 0 1 0 .801h-5.62a.4.4 0 0 1-.4-.4z"/></g><g><path fill="#9a3b82" d="M394.826 55.187c.574.39 1 1.033.99 1.839l-.113 8.363c0 1.039-.744 1.953-1.777 1.953h-1.76c-1.625 0-2.866-1.475-2.866-3.173v-1.282a.4.4 0 1 1 .8 0v1.282c0 1.347.969 2.372 2.066 2.372h1.76c.504 0 .977-.463.977-1.154v-.003l.112-8.368c.006-.493-.249-.9-.64-1.166-.396-.27-.906-.374-1.347-.267a.4.4 0 1 1-.189-.779c.68-.165 1.42-.004 1.987.383z"/></g><g><path fill="#9a3b82" d="M395.41 62.49a.4.4 0 0 1 .4.4v1.283c0 1.347.969 2.372 2.066 2.372h1.12a.4.4 0 0 1 0 .801h-1.12c-1.625 0-2.866-1.475-2.866-3.173V62.89a.4.4 0 0 1 .4-.401z"/></g></g></g></g><g><g><path fill="#66b0f0" d="M519.836 419.923L501.25 265.075l.954-.115 18.586 154.848z"/></g><g><path fill="#66b0f0" d="M402.11 419.808l18.586-154.848.953.115-18.585 154.848z"/></g><g><path fill="#66b0f0" d="M513.918 367.162H408.95v-.962h104.968z"/></g><g><path fill="#fff" d="M410.453 265.493h101.014a2.434 2.434 0 0 0 2.434-2.436v-3.301a2.434 2.434 0 0 0-2.434-2.436H410.453a2.434 2.434 0 0 0-2.433 2.436v3.301a2.434 2.434 0 0 0 2.433 2.436z"/></g><g><path fill="#ffcf2d" d="M407.55 259.757a2.914 2.914 0 0 1 2.914-2.917h101.013a2.914 2.914 0 0 1 2.914 2.917v3.301a2.914 2.914 0 0 1-2.914 2.917H410.464a2.914 2.914 0 0 1-2.914-2.917zm2.914-1.955c-1.08 0-1.953.874-1.953 1.955v3.301c0 1.08.873 1.955 1.953 1.955h101.013c1.08 0 1.954-.874 1.954-1.955v-3.301c0-1.08-.874-1.955-1.954-1.955z"/></g></g></g><g><g><g><path fill="#fff" d="M242.373 148.31l-15.464 31.86H180.18l18.778-31.86z"/></g><g><path fill="#3fb1b5" d="M198.73 147.91h44.284l-15.854 32.662h-47.68zm.457.801l-18.305 31.06h45.777l15.076-31.06z"/></g><g><path fill="#3fb1b5" d="M213.72 154.545c.356.228.71.454 1.062.67.571.347 1.248.458 2.03.397.786-.062 1.652-.294 2.576-.607.577-.196 1.158-.416 1.749-.64.363-.137.73-.275 1.103-.411.965-.351 1.945-.673 2.892-.843 2.554-.47 4.388.205 5.585 1.016a6.618 6.618 0 0 1 1.312 1.168 5.382 5.382 0 0 1 .426.572l.007.01.002.004v.001l-.344.203-.346.203-.002-.004-.004-.007-.01-.015a4.547 4.547 0 0 0-.337-.445 5.814 5.814 0 0 0-1.153-1.027c-1.04-.704-2.663-1.319-4.992-.89h-.001c-.878.157-1.806.459-2.761.807-.352.128-.71.264-1.071.4-.603.228-1.211.458-1.798.657-.944.32-1.885.578-2.771.647-.89.069-1.75-.05-2.508-.512a59.06 59.06 0 0 1-1.131-.713c-.927-.593-1.81-1.158-2.752-1.568-1.287-.56-2.64-.803-4.254-.352-1.683.47-3.152 1.158-4.2 1.729a19.916 19.916 0 0 0-1.553.94 7.537 7.537 0 0 0-.102.07l-.004.004h-.001l-.235-.324-.234-.325.003-.002.006-.005a4.764 4.764 0 0 1 .116-.08c.079-.055.195-.132.345-.229.3-.192.733-.457 1.276-.753 1.084-.59 2.61-1.306 4.368-1.797 1.829-.51 3.373-.226 4.787.389 1.006.437 1.971 1.055 2.919 1.662z"/></g><g><path fill="#3fb1b5" d="M212.12 159.505c.356.228.71.454 1.062.67.571.347 1.248.458 2.03.397.786-.062 1.652-.294 2.576-.607a53.312 53.312 0 0 0 1.749-.64c.363-.137.73-.275 1.103-.411.965-.351 1.945-.673 2.892-.843 2.554-.47 4.388.205 5.585 1.016a6.618 6.618 0 0 1 1.312 1.168 5.357 5.357 0 0 1 .426.572.491.491 0 0 1 .007.01l.002.004v.001l-.344.203-.346.203-.002-.004a1.513 1.513 0 0 1-.004-.007l-.01-.015a4.545 4.545 0 0 0-.337-.445 5.815 5.815 0 0 0-1.153-1.027c-1.04-.704-2.663-1.319-4.992-.89h-.001c-.878.157-1.806.46-2.761.807-.352.128-.71.264-1.071.4-.603.228-1.211.458-1.798.657-.944.32-1.885.578-2.771.647-.89.069-1.75-.05-2.508-.512-.388-.237-.763-.477-1.131-.713-.927-.593-1.81-1.158-2.752-1.568-1.287-.56-2.64-.803-4.254-.352-1.683.47-3.152 1.158-4.2 1.729a19.916 19.916 0 0 0-1.553.94 7.537 7.537 0 0 0-.082.056l-.02.014-.004.004h-.001l-.235-.324-.234-.325.003-.002.006-.005a4.764 4.764 0 0 1 .115-.08 20.72 20.72 0 0 1 1.622-.982c1.084-.59 2.61-1.306 4.368-1.797 1.829-.51 3.373-.226 4.787.389 1.006.437 1.971 1.055 2.919 1.662z"/></g></g><g><g><g><g><path fill="#fe5244" d="M259.944 291.3c0 4.28-11.862 7.742-26.718 7.742s-26.366-3.462-26.366-7.741c0-4.28 11.51-7.741 26.366-7.741s26.718 3.478 26.718 7.74z"/></g><g><g><path fill="#a0505a" d="M253.108 286.092v55.292l-1.681-7.982a18.546 18.546 0 0 0-18.154-14.728c-2.641 0-5.234.561-7.588 1.619-.08.032-.16.08-.256.112l-6.163-22.501-3.426-12.517c4.69-1.138 10.758-1.827 17.385-1.827 7.876 0 14.968.978 19.883 2.532z"/></g><g><path fill="#73325a" d="M253.108 286.086v10.418c-4.915 1.554-12.007 2.532-19.883 2.532-5.106 0-9.877-.417-13.96-1.122l-3.425-12.517c4.69-1.138 10.758-1.827 17.385-1.827 7.876-.016 14.968.962 19.883 2.516z"/></g></g><g><g><g><g><path fill="#ffcf2d" d="M251.62 339.316c.08-.61 1.969-15.017 4.274-18.527.497-.753 1.553-1.154 2.69-1.025 1.36.16 2.449 1.041 2.93 2.356 1.344 3.702-2.274 9.359-5.94 13.814 2.353-1.682 5.331-3.285 7.476-2.708 1.169.32 1.97 1.218 2.385 2.66.465 1.619.256 2.901-.624 3.783-1.025 1.025-2.834 1.362-4.787 1.362-3.601 0-7.668-1.138-8.1-1.266zm.976-1.138c3.458-3.798 5.892-7.148 7.236-10 1.425-3.013 1.297-4.808.945-5.786-.528-1.474-1.761-1.763-2.273-1.827-.112-.016-.224-.016-.337-.016-.704 0-1.312.256-1.6.69-1.825 2.772-3.458 13.285-3.97 16.94zm12.087-2.067c-.352-1.17-.945-1.86-1.825-2.1-1.457-.4-3.73.449-6.58 2.42-1.488 1.026-2.769 2.132-3.457 2.74.912.241 2.625.626 4.466.866 3.506.449 5.907.128 6.964-.93.672-.673.816-1.65.432-2.996z"/></g></g></g><g><path fill="#fff" d="M219.426 324.892l-3.698 4.151a14.54 14.54 0 0 0-1.697 17.02l16.28 27.95a17.752 17.752 0 0 0 15.337 8.815h6.74c4.882 0 8.516-4.487 7.508-9.263l-8.485-40.147a18.546 18.546 0 0 0-18.154-14.728 18.46 18.46 0 0 0-13.831 6.202z"/></g><g><path fill="#3fb1b5" d="M251.803 333.326l8.484 40.146c1.062 5.026-2.762 9.747-7.9 9.747h-6.739a18.152 18.152 0 0 1-15.682-9.013l-16.28-27.95a14.94 14.94 0 0 1 1.743-17.489l3.698-4.15.872.232c-.093.099-.184.2-.274.3l-3.698 4.151a14.139 14.139 0 0 0-1.65 16.552l16.28 27.95a17.352 17.352 0 0 0 14.991 8.616h6.74c4.628 0 8.072-4.253 7.116-8.78l-8.484-40.146a18.328 18.328 0 0 0-.089-.398zm-18.547-14.245A18.056 18.056 0 0 0 220 324.85l30.932 8.245a18.146 18.146 0 0 0-17.673-14.013zm-14.128 5.535a18.86 18.86 0 0 1 14.13-6.336c8.961 0 16.697 6.27 18.545 15.046"/></g><g><path fill="#3fb1b5" d="M232.027 336.972l21.02 40.771c.992 1.843 2.224 3.03 3.633 3.782a7.67 7.67 0 0 1-4.29 1.315h-6.74a17.747 17.747 0 0 1-15.336-8.815l-16.28-27.966a14.975 14.975 0 0 1-1.49-3.558c-2.305-8.574 7.445-15.305 14.76-10.273 1.665 1.138 3.298 2.676 4.723 4.744z"/></g><g><g><g><path fill="#fff" d="M232.072 337.065H212.67c.096-.304.208-.593.336-.865h18.442c.192.256.384.513.576.785z"/></g></g><g><g><path fill="#fff" d="M234.93 342.585h-22.348c0-.032-.016-.064-.016-.08a13.833 13.833 0 0 1-.176-.785h22.108z"/></g></g><g><g><path fill="#fff" d="M237.772 348.111h-22.54l-.512-.881h22.604z"/></g></g><g><g><path fill="#fff" d="M240.624 353.642h-22.172l-.512-.882h22.236z"/></g></g><g><g><path fill="#fff" d="M243.476 359.155h-21.804l-.512-.865h21.868z"/></g></g><g><g><path fill="#fff" d="M246.328 364.681h-21.436l-.512-.881h21.483z"/></g></g><g><g><path fill="#fff" d="M249.17 370.212h-21.068l-.512-.882h21.115z"/></g></g><g><g><path fill="#fff" d="M252.003 375.725h-20.555c-.208-.288-.416-.577-.608-.865h20.715z"/></g></g><g><g><path fill="#fff" d="M256.216 381.255h-17.865a16.641 16.641 0 0 1-1.681-.865h18.394c.368.32.752.609 1.152.865z"/></g></g></g></g></g><g><g><path fill="#73325a" d="M194.379 290.159c-.144 4.231-12.135 7.66-26.895 7.66s-26.75-3.413-26.894-7.66V256.84h53.789z"/></g><g><g><path fill="#a0505a" d="M190.802 295.69l-.08 3.959-.769 38.64v-1.122c0-9.92-8.036-17.966-17.945-17.966h-1.089a18.914 18.914 0 0 0-12.999 5.144l-2.353-15.93-1.457-9.856c3.938.657 8.5 1.025 13.351 1.025 9.99-.016 18.682-1.586 23.34-3.894z"/></g><g><path fill="#73325a" d="M190.805 295.69l-.08 3.958c-5.955 4.231-24.348 9.44-35.138 8.75l-1.457-9.855c3.938.64 8.5 1.025 13.351 1.025 9.973 0 18.666-1.57 23.325-3.878z"/></g></g><g><g><path fill="#fff" d="M172.83 383.354h2.977c7.812 0 14.152-6.346 14.152-14.167v-32.021c0-9.92-8.037-17.966-17.946-17.966h-1.088c-11.526 0-20.411 10.177-18.858 21.62l3.762 27.694c1.168 8.494 8.42 14.84 17 14.84z"/></g><g><path fill="#3fb1b5" d="M151.67 340.874c-1.585-11.683 7.486-22.074 19.255-22.074h1.089c10.13 0 18.345 8.225 18.345 18.366v32.021c0 8.042-6.518 14.568-14.551 14.568h-2.978c-8.78 0-16.202-6.494-17.398-15.186zm4.555 27.585c1.142 8.297 8.225 14.495 16.605 14.495h2.978c7.59 0 13.751-6.167 13.751-13.767v-32.02c0-9.7-7.857-17.566-17.545-17.566h-1.089c-11.284 0-19.982 9.963-18.462 21.165z"/></g><g><path fill="#3fb1b5" d="M185.51 379.486a14.115 14.115 0 0 1-9.701 3.863h-2.978c-8.58 0-15.832-6.347-16.985-14.84l-3.762-27.695c-.064-.528-.128-1.057-.144-1.57.96-6.138 6.26-10.834 12.663-10.834a12.81 12.81 0 0 1 8.324 3.077 12.794 12.794 0 0 1 4.339 7.757l4.946 33.8a11.177 11.177 0 0 0 3.298 6.442z"/></g><g><g><g><path fill="#fff" d="M175.774 334.965H153.41c.16-.304.352-.593.544-.865h21.292c.192.272.368.56.528.865z"/></g></g><g><g><path fill="#fff" d="M177.435 340.485H152.03a15.798 15.798 0 0 1-.08-.865h25.358z"/></g></g><g><g><path fill="#fff" d="M178.258 346.015h-25.47l-.128-.865h25.47z"/></g></g><g><g><path fill="#fff" d="M179.056 351.541h-25.518l-.128-.881h25.518z"/></g></g><g><g><path fill="#fff" d="M179.87 357.055h-25.582l-.128-.865h25.582z"/></g></g><g><g><path fill="#fff" d="M180.668 362.586h-25.646l-.112-.866h25.63z"/></g></g><g><g><path fill="#fff" d="M181.492 368.111h-25.71l-.112-.881h25.694z"/></g></g><g><g><path fill="#fff" d="M182.305 373.625h-24.94a10.216 10.216 0 0 1-.385-.865h25.181l.048.288.096.577z"/></g></g><g><g><path fill="#fff" d="M185.169 379.155h-23.58c-.32-.272-.64-.577-.929-.865h23.773c.224.304.48.593.736.865z"/></g></g></g></g></g></g><g><g><g><path fill="#ffcf2d" d="M206.016 116.972v26.989c-1.169-3.061-10.422-2.628-20.603 1.234-8.725 3.317-15.272 7.869-16.233 11.026v-37.983c0-11.298 6.035-21.395 15.304-26.908 12.039 2.1 21.532 12.597 21.532 25.642z"/></g><g><path fill="#ffcf2d" d="M168.471 92.55a31.276 31.276 0 0 0-13.415 25.69v31.332H109.48l6.291-27.117a34.53 34.53 0 0 1 21.916-24.696z"/></g></g><g><g><path fill="#fe5244" d="M260.649 226.666v62.904c0-4.279-12.567-7.741-27.423-7.741-14.856 0-26.894 3.462-26.894 7.741v-30.146a2.57 2.57 0 0 0-2.561-2.564h-81.708c-24.573 0-42.743-22.902-37.188-46.861l19.723-85.069a34.517 34.517 0 0 1 27.839-26.251l5.25-.898a34.53 34.53 0 0 0-21.915 24.697l-6.292 27.117h45.577v-31.348a31.296 31.296 0 0 1 13.415-25.69l7.204-1.218a25.772 25.772 0 0 1 4.402-.369h.56c.176 0 .353.016.513.016h.096c.128 0 .272.016.4.016h.064c.08 0 .16.016.224.016.144.016.272.016.416.032l.497.048.464.048c.032 0 .064.016.112.016.16.016.336.048.496.064h.032c.176.032.352.048.528.08-9.269 5.514-15.304 15.61-15.304 26.909v77.007h60.096c17.321.032 31.377 14.088 31.377 31.444z"/></g><g><path fill="#fff" d="M169.238 91.456a.48.48 0 0 1 .669.12zm-14.677 26.79c0-10.695 6.373-21.01 14.677-26.79zm15.346-26.67a.481.481 0 0 1-.12.67c-8.089 5.63-14.266 15.669-14.266 26v31.813H108.86l6.428-27.706m39.273 26.744h-44.492"/></g><g><path fill="#fff" d="M215.54 225.014a.481.481 0 0 1 .058.677 37.322 37.322 0 0 0-8.787 24.066.48.48 0 1 1-.961 0c0-9.04 3.194-17.788 9.014-24.686a.48.48 0 0 1 .677-.057z"/></g><g><g><path fill="#fff" d="M139.755 246.566a.367.367 0 0 1-.224-.065l-2.113-1.153a.478.478 0 0 1-.193-.658.477.477 0 0 1 .657-.192l2.113 1.154c.24.128.32.417.192.657a.505.505 0 0 1-.432.257zm2.113-.545a.462.462 0 0 1-.416-.257.478.478 0 0 1 .192-.657l2.113-1.154a.49.49 0 0 1 .656.193.478.478 0 0 1-.192.657l-2.113 1.154c-.08.032-.16.064-.24.064zm-6.34-1.747a.367.367 0 0 1-.224-.064l-2.113-1.154a.478.478 0 0 1-.192-.657.477.477 0 0 1 .657-.193l2.113 1.154c.24.128.32.417.192.657a.505.505 0 0 1-.432.257zm10.55-.561a.461.461 0 0 1-.416-.257.478.478 0 0 1 .192-.657l2.113-1.154a8.765 8.765 0 0 0 1.04-.657.483.483 0 0 1 .673.096.485.485 0 0 1-.096.674c-.368.272-.752.512-1.153.737l-2.113 1.154a.452.452 0 0 1-.24.064zm-14.728-1.811a.516.516 0 0 1-.288-.096 9.828 9.828 0 0 1-1.825-1.731.466.466 0 0 1 .064-.673.465.465 0 0 1 .673.064 8.916 8.916 0 0 0 1.648 1.554c.209.16.257.465.113.673-.08.145-.225.209-.385.209zm19.675-1.683a.449.449 0 0 1-.304-.112.466.466 0 0 1-.064-.673 8.92 8.92 0 0 0 1.2-1.94c.112-.24.4-.352.64-.24.24.112.353.4.24.641-.351.77-.8 1.49-1.328 2.132a.5.5 0 0 1-.384.192zm-22.684-1.987a.472.472 0 0 1-.433-.273c-.352-.769-.608-1.57-.768-2.404a.487.487 0 0 1 .384-.56.487.487 0 0 1 .56.384c.145.753.369 1.475.689 2.164.112.24 0 .528-.24.64a.425.425 0 0 1-.192.049zm24.669-2.34h-.08a.487.487 0 0 1-.384-.561 8.867 8.867 0 0 0 .144-1.587v-.72c0-.273.208-.482.48-.482s.48.209.48.481v.721c0 .593-.048 1.186-.16 1.763a.496.496 0 0 1-.48.385zm-25.55-2.34a.472.472 0 0 1-.48-.48v-2.405c0-.272.208-.48.48-.48s.48.208.48.48v2.404c0 .257-.224.481-.48.481zm25.694-2.452a.472.472 0 0 1-.48-.48v-2.405c0-.272.208-.48.48-.48s.48.208.48.48v2.404c0 .273-.208.481-.48.481zm-25.694-2.356a.472.472 0 0 1-.48-.48v-2.405c0-.272.208-.48.48-.48s.48.208.48.48v2.404c0 .257-.224.481-.48.481zm25.694-2.452a.472.472 0 0 1-.48-.48v-2.405c0-.272.208-.48.48-.48s.48.208.48.48v2.404c0 .273-.208.481-.48.481zm-25.694-2.356a.472.472 0 0 1-.48-.48v-2.405c0-.272.208-.48.48-.48s.48.208.48.48v2.404c0 .257-.224.481-.48.481zm25.694-2.452a.472.472 0 0 1-.48-.48v-2.405c0-.272.208-.48.48-.48s.48.208.48.48v2.404c0 .273-.208.481-.48.481zm-25.694-2.356a.472.472 0 0 1-.48-.48v-2.068h1.297c.272 0 .48.208.48.48 0 .273-.208.482-.48.482h-.336v1.105c0 .257-.225.481-.48.481zm24.83-1.586h-2.402a.472.472 0 0 1-.48-.481c0-.273.208-.481.48-.481h2.402c.272 0 .48.208.48.48 0 .273-.208.482-.48.482zm-4.803 0h-2.401a.472.472 0 0 1-.48-.481c0-.273.208-.481.48-.481h2.401c.272 0 .48.208.48.48 0 .273-.208.482-.48.482zm-4.803 0h-2.4a.472.472 0 0 1-.481-.481c0-.273.208-.481.48-.481h2.401c.273 0 .48.208.48.48 0 .273-.207.482-.48.482zm-4.802 0h-2.401a.472.472 0 0 1-.48-.481c0-.273.207-.481.48-.481h2.4c.273 0 .481.208.481.48 0 .273-.208.482-.48.482zm-4.803 0h-2.401a.472.472 0 0 1-.48-.481c0-.273.208-.481.48-.481h2.401c.272 0 .48.208.48.48 0 .273-.208.482-.48.482z"/></g></g><g><g><path fill="#fff" d="M94.447 243.905a.461.461 0 0 1-.416-.256.478.478 0 0 1 .192-.657l1.953-1.074c.048-.032.096-.048.144-.08a.49.49 0 0 1 .656.176.49.49 0 0 1-.176.657.5.5 0 0 1-.16.08l-1.953 1.074a.361.361 0 0 1-.24.08zm4.05-2.564a.454.454 0 0 1-.352-.16.48.48 0 0 1 .032-.674 10.24 10.24 0 0 0 1.489-1.73c.144-.225.448-.273.672-.128.224.144.272.448.128.673-.464.689-1.024 1.33-1.633 1.907a.563.563 0 0 1-.336.112zm2.674-3.943c-.065 0-.113-.016-.177-.032a.486.486 0 0 1-.272-.625c.272-.72.465-1.458.577-2.211a.488.488 0 0 1 .544-.417.488.488 0 0 1 .416.545c-.112.833-.32 1.65-.624 2.436a.52.52 0 0 1-.464.304zm.688-4.711a.472.472 0 0 1-.48-.481v-2.404c0-.273.208-.48.48-.48s.48.207.48.48v2.404c0 .256-.208.48-.48.48zm0-4.808a.472.472 0 0 1-.48-.481v-2.404c0-.273.208-.48.48-.48s.48.207.48.48v2.404c0 .256-.208.48-.48.48zm0-4.808a.472.472 0 0 1-.48-.481v-2.404c0-.272.208-.48.48-.48s.48.208.48.48v2.404c0 .256-.208.48-.48.48zm0-4.808a.472.472 0 0 1-.48-.481v-.24h-1.201a.472.472 0 0 1-.48-.481c0-.273.208-.481.48-.481h2.161v1.202c0 .256-.208.48-.48.48zm-4.082-.721h-2.402a.472.472 0 0 1-.48-.481c0-.273.208-.481.48-.481h2.402c.272 0 .48.208.48.48 0 .273-.224.482-.48.482zm-4.803 0h-2.401a.472.472 0 0 1-.48-.481c0-.273.208-.481.48-.481h2.401c.272 0 .48.208.48.48 0 .273-.224.482-.48.482zm-4.802 0H85.77a.472.472 0 0 1-.48-.481c0-.273.208-.481.48-.481h2.402c.272 0 .48.208.48.48 0 .273-.224.482-.48.482z"/></g></g></g></g><g><g><path fill="#fe5244" d="M206.01 143.967c1.168 3.061-6.228 8.494-16.393 12.356-10.165 3.863-19.274 4.456-20.443 1.379-1.169-3.077 6.051-8.623 16.233-12.485 10.181-3.862 19.434-4.327 20.603-1.25z"/></g><g><path fill="#73325a" d="M211.694 243.395v1.698a7.033 7.033 0 0 0-1.65-.192h-2.064c-3.058 0-5.667-1.955-6.66-4.68l5.86-.785a3.989 3.989 0 0 1 4.513 3.959z"/></g><g><path fill="#a0505a" d="M217.106 251.972v13.045a5.51 5.51 0 0 1-5.507 5.513h-6.132a5.427 5.427 0 0 1-3.89-1.618 5.504 5.504 0 0 1-1.617-3.895h3.987a2.365 2.365 0 0 0 2.369-2.372v-3.413a2.365 2.365 0 0 0-2.37-2.372h-20.378c-7.957 0-14.408-6.459-14.408-14.424v-86.19c.96-3.158 7.508-7.725 16.233-11.027 5.955-2.26 11.606-3.35 15.496-3.253v95.87c0 3.91 3.17 7.084 7.076 7.084h2.065a7.044 7.044 0 0 1 7.076 7.052z"/></g><g><path fill="#73325a" d="M200.889 141.946v8.718c-2.898 1.956-6.82 3.959-11.286 5.642-10.182 3.862-19.274 4.455-20.443 1.378v-1.459c.96-3.157 7.508-7.724 16.233-11.026 5.97-2.26 11.606-3.35 15.496-3.253z"/></g></g><g><g><g><path fill="#a0505a" d="M174.264 77.02l-6.02 15.53-31.024 5.56 8.1-21.09z"/></g><g><path fill="#73325a" d="M174.268 77.02l-3.25 8.398-30.768 4.808 5.075-13.206z"/></g></g><g><g><path fill="#fff" d="M192.453 45.416c0 2.1-3.633 4.423-7.828 6.378-5.715 2.677-12.454 4.712-12.454 4.712l-4.547 8.574c6.18 3.286 8.597 9.183 9.557 13.302.609 2.629.609 4.504.609 4.504h-43.576s-11.446-37.118 16.137-45.996c16.873-5.433 42.102 3.542 42.102 8.526z"/></g><g><path fill="#ffcf2d" d="M188.015 41.638c1.294.718 2.305 1.431 2.985 2.101.694.684.973 1.251.973 1.678 0 .383-.166.823-.537 1.319-.37.494-.917 1.012-1.614 1.54-1.393 1.058-3.314 2.111-5.4 3.083-2.837 1.33-5.934 2.501-8.326 3.342a120.172 120.172 0 0 1-3.989 1.323 8.46 8.46 0 0 1-.056.017l-.018.005s-.048-.155 0 0l-.192.058-4.866 9.176.424.226c6.003 3.191 8.368 8.928 9.315 12.986a24.56 24.56 0 0 1 .522 3.174c.028.296.045.545.056.74h-42.717l-.02-.069c-.076-.27-.184-.669-.313-1.18a63.026 63.026 0 0 1-.912-4.293c-.638-3.596-1.201-8.473-.911-13.619.29-5.148 1.434-10.536 4.187-15.176 2.747-4.63 7.11-8.537 13.892-10.72 8.315-2.678 18.74-1.813 27.111.363 4.181 1.087 7.822 2.493 10.406 3.926zM177.79 82.886h.48v-.007-.02l-.001-.068a18.899 18.899 0 0 0-.077-1.216 25.504 25.504 0 0 0-.543-3.3v-.001c-.953-4.086-3.334-9.968-9.378-13.387l4.23-7.979.113-.035a121.321 121.321 0 0 0 3.8-1.265c2.406-.845 5.536-2.03 8.414-3.377 2.11-.983 4.102-2.07 5.575-3.188.736-.559 1.359-1.138 1.802-1.731.442-.591.729-1.23.729-1.895 0-.82-.51-1.624-1.26-2.363-.766-.754-1.859-1.517-3.193-2.257-2.674-1.482-6.395-2.914-10.63-4.015-8.461-2.2-19.089-3.105-27.647-.35-7.008 2.257-11.559 6.318-14.423 11.145-2.859 4.817-4.025 10.373-4.321 15.614-.296 5.243.278 10.2.924 13.841.324 1.822.666 3.318.927 4.36a44.31 44.31 0 0 0 .436 1.607l.006.021.003.008.459-.142-.46.142.105.34h44.41v-.481z"/></g><g><path fill="#fff" d="M146.318 42.18c5.985 0 10.837-4.858 10.837-10.85s-4.852-10.85-10.837-10.85c-5.986 0-10.838 4.858-10.838 10.85s4.852 10.85 10.838 10.85z"/></g><g><path fill="#ffcf2d" d="M156.676 31.33c0 5.727-4.638 10.37-10.358 10.37-5.72 0-10.357-4.643-10.357-10.37 0-5.726 4.637-10.368 10.357-10.368s10.358 4.642 10.358 10.369zm-10.358 11.331c6.25 0 11.318-5.073 11.318-11.33 0-6.258-5.067-11.331-11.318-11.331C140.068 20 135 25.073 135 31.33c0 6.258 5.067 11.331 11.318 11.331z"/></g></g><g><g><path fill="#a0505a" d="M177.166 78.385c-.897-3.894-3.138-9.44-8.66-12.789h-1.425a4.765 4.765 0 0 1-3.378-1.394 4.776 4.776 0 0 1-1.393-3.382 4.765 4.765 0 0 1 4.77-4.776l6.036.128h.16c.112-.032.224-.08.352-.112 1.633-.352 6.804-1.602 11.094-3.75l.496 2.965 1.601 9.504c1.089 6.522-3.378 12.532-9.653 13.606z"/></g><g><path fill="#73325a" d="M185.202 55.255c-5.25 2.131-12.102.897-12.102.897s6.451-1.282 11.606-3.862z"/></g><g><path fill="#73325a" d="M167.1 58.43a.4.4 0 0 1 .4-.4 3.695 3.695 0 0 1 3.698 3.702.4.4 0 1 1-.8 0c0-1.606-1.294-2.9-2.898-2.9a.4.4 0 0 1-.4-.401z"/></g></g></g></g><g><g><path fill="#66b0f0" d="M205.856 419.923L187.27 265.075l.954-.115 18.586 154.848z"/></g><g><path fill="#66b0f0" d="M88.13 419.808L106.7 264.96l.953.115-18.57 154.847z"/></g><g><path fill="#66b0f0" d="M199.948 367.162H94.98v-.962h104.968z"/></g><g><path fill="#fff" d="M91.023 265.013H203.9a2.434 2.434 0 0 0 2.433-2.436v-3.301a2.434 2.434 0 0 0-2.433-2.436H91.023a2.434 2.434 0 0 0-2.433 2.436v3.301c.016 1.347 1.105 2.436 2.433 2.436z"/></g><g><path fill="#ffcf2d" d="M88.11 259.277a2.914 2.914 0 0 1 2.914-2.917H203.9a2.914 2.914 0 0 1 2.913 2.917v3.301a2.914 2.914 0 0 1-2.913 2.917H91.024c-1.598 0-2.895-1.307-2.914-2.911v-.003zm2.914-1.955c-1.08 0-1.953.874-1.953 1.955v3.298c.014 1.087.893 1.958 1.953 1.958H203.9a1.953 1.953 0 0 0 1.953-1.955v-3.301c0-1.08-.874-1.955-1.953-1.955z"/></g></g></g></g></g></svg>